<svg xmlns="http://www.w3.org/2000/svg" xmlns:xlink="http://www.w3.org/1999/xlink" width="500" zoomAndPan="magnify" viewBox="0 0 375 374.999991" height="500" preserveAspectRatio="xMidYMid meet" version="1.0"><defs><g/><clipPath id="d0f8888748"><path d="M 134 57.621094 L 242 57.621094 L 242 207 L 134 207 Z M 134 57.621094 " clip-rule="nonzero"/></clipPath></defs><g clip-path="url(#d0f8888748)"><path fill="#000000" d="M 145.667969 139.574219 C 145.988281 140.707031 146.5625 141.792969 147.394531 142.828125 C 151.351562 147.746094 160.828125 150.964844 174.074219 151.890625 C 207.5 154.242188 220.292969 146.054688 221.640625 145.117188 C 222.425781 144.566406 222.757812 144.058594 222.625 143.601562 C 221.601562 140.066406 201.066406 136.261719 184.746094 135.46875 C 173.742188 134.933594 157.027344 136.015625 145.667969 139.574219 Z M 232.382812 149.4375 C 231.785156 149.4375 231.160156 149.492188 230.507812 149.601562 C 224.800781 150.550781 224.042969 158.320312 223.636719 162.492188 C 223.078125 168.183594 221.910156 173.578125 220.1875 178.464844 C 228.332031 177.460938 238.710938 172.371094 240.386719 164.597656 C 241.289062 160.414062 240.863281 154.792969 237.875 151.675781 C 236.449219 150.1875 234.609375 149.4375 232.382812 149.4375 Z M 179.851562 206.292969 C 167.402344 206.292969 154.378906 202.0625 145.585938 191.441406 C 138.445312 182.816406 132.933594 158.753906 134.183594 147.753906 C 134.46875 145.242188 135.109375 143.589844 136.09375 142.835938 C 138.152344 141.257812 140.988281 139.925781 144.316406 138.8125 C 144.167969 137.875 144.167969 136.917969 144.3125 135.949219 C 145.515625 127.941406 159.855469 118.328125 176.960938 114.066406 C 193.042969 110.0625 202.699219 105.570312 204.15625 101.425781 C 204.542969 100.320312 204.324219 99.257812 203.488281 98.164062 C 200.039062 93.671875 193.3125 90.449219 187.378906 87.605469 C 184.902344 86.417969 182.566406 85.296875 180.640625 84.171875 C 177.414062 82.277344 173.574219 79.222656 173.621094 75.410156 C 173.65625 72.46875 176.023438 69.675781 180.65625 67.109375 C 190.339844 61.75 190.144531 58.359375 190.140625 58.328125 C 190.109375 58.015625 190.335938 57.726562 190.648438 57.6875 C 190.960938 57.644531 191.242188 57.855469 191.292969 58.164062 C 191.359375 58.574219 191.632812 62.363281 181.21875 68.125 C 176.980469 70.472656 174.816406 72.925781 174.785156 75.425781 C 174.753906 77.964844 177.042969 80.714844 181.234375 83.171875 C 183.113281 84.273438 185.429688 85.382812 187.882812 86.558594 C 193.933594 89.460938 200.796875 92.75 204.410156 97.460938 C 205.492188 98.863281 205.773438 100.328125 205.253906 101.808594 C 203.21875 107.609375 188.898438 112.289062 177.242188 115.191406 C 160.839844 119.28125 146.582031 128.667969 145.460938 136.121094 C 145.34375 136.914062 145.335938 137.691406 145.433594 138.449219 C 156.992188 134.867188 173.757812 133.769531 184.800781 134.308594 C 197.253906 134.914062 222.292969 138.269531 223.742188 143.28125 C 223.9375 143.957031 223.847656 144.992188 222.3125 146.0625 C 220.925781 147.03125 207.824219 155.414062 173.992188 153.050781 C 156.59375 151.832031 149.433594 147.214844 146.488281 143.554688 C 145.578125 142.421875 144.933594 141.203125 144.566406 139.929688 C 141.421875 140.996094 138.75 142.261719 136.800781 143.757812 C 136.304688 144.136719 135.648438 145.164062 135.339844 147.882812 C 134.113281 158.679688 139.503906 182.265625 146.484375 190.703125 C 158.945312 205.753906 180.203125 207.601562 195.71875 202.75 C 203.738281 200.25 210.683594 194.464844 215.28125 186.46875 C 216.472656 184.394531 217.535156 182.15625 218.460938 179.777344 C 218.089844 179.796875 217.730469 179.804688 217.371094 179.804688 C 217.050781 179.804688 216.789062 179.546875 216.789062 179.226562 C 216.789062 178.902344 217.050781 178.644531 217.371094 178.644531 C 217.871094 178.644531 218.382812 178.625 218.90625 178.589844 C 220.699219 173.660156 221.910156 168.179688 222.476562 162.378906 C 222.914062 157.898438 223.730469 149.550781 230.316406 148.457031 C 233.746094 147.886719 236.65625 148.722656 238.71875 150.875 C 242.222656 154.535156 242.421875 160.6875 241.523438 164.84375 C 239.699219 173.308594 228.355469 178.789062 219.746094 179.675781 C 218.753906 182.304688 217.597656 184.769531 216.289062 187.046875 C 211.550781 195.296875 204.367188 201.265625 196.070312 203.855469 C 191.089844 205.414062 185.527344 206.292969 179.851562 206.292969 " fill-opacity="1" fill-rule="nonzero"/></g><g fill="#ffffff" fill-opacity="1"><g transform="translate(74.380352, 250.213431)"><g><path d="M 3.9375 9.453125 C 4.386719 9.113281 4.613281 8.214844 4.839844 7.3125 C 4.949219 6.863281 4.839844 6.636719 4.726562 6.636719 C 7.089844 1.460938 15.753906 -8.664062 23.964844 -18.113281 C 29.253906 -24.304688 34.203125 -30.152344 37.128906 -34.203125 C 42.304688 -34.65625 46.582031 -34.878906 49.730469 -34.878906 C 58.394531 -34.878906 60.421875 -34.203125 60.421875 -31.839844 C 60.421875 -31.503906 60.757812 -31.167969 61.09375 -31.167969 C 61.433594 -31.167969 61.769531 -31.503906 61.769531 -31.839844 C 61.769531 -35.21875 59.070312 -36.117188 49.730469 -36.117188 C 46.917969 -36.117188 43.207031 -36.003906 38.253906 -35.554688 L 38.59375 -36.34375 C 38.707031 -36.34375 38.707031 -36.453125 38.707031 -36.679688 C 38.707031 -37.015625 38.367188 -37.242188 38.03125 -37.242188 C 37.804688 -37.242188 37.578125 -37.128906 37.46875 -37.015625 C 37.242188 -36.453125 36.90625 -36.003906 36.453125 -35.441406 C 27.453125 -34.65625 15.976562 -33.078125 4.164062 -30.941406 C 3.824219 -30.941406 3.601562 -30.714844 3.601562 -30.378906 C 3.601562 -30.042969 3.824219 -29.703125 4.277344 -29.703125 L 4.386719 -29.703125 C 15.753906 -31.730469 26.667969 -33.191406 35.441406 -33.980469 C 32.515625 -30.042969 27.902344 -24.640625 22.953125 -19.015625 C 13.839844 -8.4375 3.9375 3.039062 2.925781 7.761719 C 2.8125 8.214844 2.699219 8.664062 2.8125 8.890625 C 2.8125 9.453125 3.488281 9.789062 3.9375 9.453125 Z M 3.9375 9.453125 "/></g></g></g><g fill="#ffffff" fill-opacity="1"><g transform="translate(104.420977, 250.213431)"><g><path d="M -0.675781 0.898438 C 2.925781 0.898438 6.414062 -5.175781 5.738281 -9.5625 C 5.738281 -9.789062 5.851562 -10.015625 6.074219 -9.789062 C 12.601562 -5.738281 21.265625 -5.289062 27.117188 -8.664062 C 27.339844 -8.777344 27.566406 -9 27.566406 -9.226562 C 27.566406 -9.5625 27.230469 -9.789062 26.890625 -9.789062 L 26.554688 -9.789062 C 21.152344 -6.636719 13.277344 -7.089844 7.199219 -10.6875 C 6.976562 -10.800781 6.976562 -10.914062 7.199219 -11.027344 C 7.3125 -11.140625 7.539062 -11.140625 7.652344 -11.25 C 7.988281 -11.25 8.101562 -11.476562 8.101562 -11.8125 C 8.101562 -12.152344 7.875 -12.488281 7.539062 -12.488281 C 7.425781 -12.488281 7.3125 -12.488281 7.3125 -12.375 C 6.75 -12.265625 6.1875 -12.039062 5.738281 -11.8125 C 5.511719 -11.703125 5.511719 -11.703125 5.289062 -11.8125 C 4.839844 -11.925781 4.386719 -11.589844 4.164062 -11.140625 C 4.164062 -11.027344 4.050781 -11.027344 4.050781 -10.914062 C 0.113281 -8.550781 -2.8125 -4.839844 -2.8125 -1.6875 C -2.8125 -0.113281 -2.023438 0.898438 -0.675781 0.898438 Z M -0.675781 -0.335938 C -1.238281 -0.335938 -1.574219 -0.789062 -1.574219 -1.6875 C -1.574219 -4.277344 1.011719 -7.539062 4.5 -9.675781 C 5.0625 -6.074219 2.023438 -0.335938 -0.675781 -0.335938 Z M -0.675781 -0.335938 "/></g></g></g><g fill="#ffffff" fill-opacity="1"><g transform="translate(128.7235, 250.213431)"><g><path d="M -42.980469 46.019531 C -38.707031 46.019531 -31.730469 40.957031 -21.601562 30.714844 C -15.753906 24.753906 -10.800781 19.691406 -6.75 15.300781 C -2.25 12.265625 2.8125 9 8.214844 5.511719 C 18.339844 -0.898438 26.554688 -6.300781 29.253906 -8.4375 C 29.480469 -8.550781 29.480469 -8.777344 29.480469 -9 C 29.480469 -9.339844 29.253906 -9.5625 28.917969 -9.5625 C 28.691406 -9.5625 28.578125 -9.5625 28.464844 -9.453125 C 25.765625 -7.3125 17.550781 -2.023438 7.539062 4.386719 L -3.261719 11.476562 C 3.824219 3.601562 7.875 -1.574219 10.6875 -5.175781 C 13.5 -8.890625 14.175781 -9.902344 14.175781 -11.027344 C 14.175781 -12.152344 12.9375 -12.714844 11.363281 -12.714844 C 5.402344 -12.714844 -5.851562 -5.738281 -5.851562 -2.023438 C -5.851562 -0.789062 -5.175781 -0.113281 -3.9375 -0.113281 C -2.136719 -0.113281 1.800781 -2.023438 8.4375 -6.074219 C 10.238281 -7.199219 10.351562 -6.976562 9.675781 -5.964844 C 6.414062 -1.914062 1.574219 4.386719 -7.652344 14.289062 C -34.878906 32.066406 -45.679688 40.28125 -45.679688 43.429688 C -45.679688 45.007812 -44.554688 46.019531 -42.980469 46.019531 Z M -3.9375 -1.351562 C -4.386719 -1.351562 -4.5 -1.574219 -4.5 -2.023438 C -4.5 -4.839844 6.300781 -11.363281 11.363281 -11.363281 C 12.265625 -11.363281 12.828125 -11.140625 12.828125 -11.027344 C 12.828125 -10.800781 12.828125 -10.6875 12.714844 -10.464844 L 12.375 -10.125 C 11.476562 -9.5625 10.015625 -8.550781 7.761719 -7.199219 C 1.351562 -3.375 -2.585938 -1.351562 -3.9375 -1.351562 Z M -42.980469 44.667969 C -43.878906 44.667969 -44.445312 44.21875 -44.445312 43.429688 C -44.445312 41.179688 -34.542969 33.53125 -11.363281 18.226562 C -14.625 21.714844 -18.339844 25.539062 -22.503906 29.816406 C -32.40625 39.71875 -39.269531 44.667969 -42.980469 44.667969 Z M -42.980469 44.667969 "/></g></g></g><g fill="#ffffff" fill-opacity="1"><g transform="translate(155.276263, 250.213431)"><g><path d="M 3.714844 0.335938 C 7.199219 0.335938 18.113281 -2.8125 25.992188 -8.664062 C 26.214844 -8.777344 26.328125 -9 26.328125 -9.226562 C 26.328125 -9.5625 25.992188 -9.789062 25.652344 -9.789062 C 25.539062 -9.789062 25.429688 -9.789062 25.316406 -9.675781 C 17.550781 -4.050781 6.976562 -1.011719 3.714844 -1.011719 C 1.125 -1.011719 -0.226562 -1.6875 -0.226562 -3.152344 C -0.226562 -4.613281 0.898438 -6.414062 2.363281 -7.988281 C 3.039062 -7.652344 3.9375 -7.539062 5.175781 -7.539062 C 7.199219 -7.539062 9.789062 -9.226562 9.789062 -10.6875 C 9.789062 -11.8125 9 -12.488281 7.761719 -12.488281 C 4.050781 -12.488281 -1.574219 -6.863281 -1.574219 -3.152344 C -1.574219 -0.898438 0.449219 0.335938 3.714844 0.335938 Z M 5.175781 -8.777344 C 4.386719 -8.777344 3.824219 -8.890625 3.375 -9 C 4.839844 -10.238281 6.414062 -11.140625 7.761719 -11.140625 C 8.324219 -11.140625 8.550781 -11.027344 8.550781 -10.6875 C 8.550781 -10.015625 6.414062 -8.777344 5.175781 -8.777344 Z M 5.175781 -8.777344 "/></g></g></g><g fill="#ffffff" fill-opacity="1"><g transform="translate(178.341154, 250.213431)"><g><path d="M -23.742188 28.578125 C -23.179688 28.578125 -22.503906 27.679688 -21.941406 26.777344 C -21.714844 26.441406 -21.714844 26.101562 -21.941406 25.992188 C -11.25 9.226562 2.363281 -8.324219 16.316406 -24.640625 C 26.101562 -25.089844 36.117188 -25.089844 45.679688 -24.753906 C 46.132812 -24.753906 46.355469 -24.976562 46.355469 -25.316406 C 46.355469 -25.652344 46.132812 -25.992188 45.792969 -25.992188 C 36.453125 -26.328125 26.890625 -26.328125 17.550781 -25.992188 C 23.628906 -33.078125 29.703125 -39.941406 35.78125 -46.46875 C 35.890625 -46.582031 35.890625 -46.804688 35.890625 -46.917969 C 35.890625 -47.257812 35.667969 -47.59375 35.21875 -47.59375 C 35.105469 -47.59375 34.878906 -47.480469 34.765625 -47.367188 C 28.464844 -40.503906 22.054688 -33.304688 15.753906 -25.878906 C 5.625 -25.539062 -4.164062 -24.753906 -12.9375 -23.628906 C -13.277344 -23.515625 -13.5 -23.289062 -13.5 -22.953125 C -13.5 -22.617188 -13.164062 -22.277344 -12.828125 -22.277344 L -12.714844 -22.277344 C -4.386719 -23.402344 4.949219 -24.191406 14.625 -24.640625 C 0.449219 -7.988281 -13.164062 9.675781 -23.964844 26.667969 C -24.078125 26.890625 -24.191406 27.117188 -24.304688 27.339844 L -24.414062 27.453125 C -24.640625 28.128906 -24.527344 28.578125 -23.742188 28.578125 Z M -23.742188 28.578125 "/></g></g></g><g fill="#ffffff" fill-opacity="1"><g transform="translate(195.105396, 250.213431)"><g><path d="M -6.863281 6.75 C -6.414062 6.75 -5.0625 5.402344 -3.375 3.601562 C -1.914062 2.25 0 0.449219 1.914062 -1.460938 C 8.101562 -7.3125 12.488281 -10.464844 14.289062 -10.464844 C 14.515625 -10.464844 14.625 -10.351562 14.625 -10.015625 C 14.625 -9.226562 14.0625 -7.988281 13.613281 -6.75 C 13.050781 -5.402344 12.488281 -3.9375 12.488281 -2.699219 C 12.488281 -0.675781 13.839844 0.5625 16.203125 0.5625 C 21.492188 0.5625 32.628906 -4.839844 38.480469 -8.664062 C 38.707031 -8.777344 38.816406 -9 38.816406 -9.226562 C 38.816406 -9.5625 38.480469 -9.789062 38.144531 -9.789062 L 37.804688 -9.789062 C 31.953125 -5.964844 21.152344 -0.789062 16.203125 -0.789062 C 14.515625 -0.789062 13.726562 -1.351562 13.726562 -2.699219 C 13.726562 -3.601562 14.289062 -4.839844 14.738281 -6.1875 C 15.300781 -7.539062 15.863281 -8.890625 15.863281 -10.015625 C 15.863281 -11.140625 15.300781 -11.703125 14.289062 -11.703125 C 11.925781 -11.703125 7.539062 -8.550781 1.011719 -2.363281 C -0.898438 -0.5625 -2.8125 1.238281 -4.277344 2.699219 C -5.402344 3.9375 -5.964844 4.050781 -5.0625 2.476562 C -3.375 -0.226562 -0.5625 -4.164062 3.039062 -8.777344 C 27.117188 -23.964844 49.730469 -49.617188 49.730469 -55.246094 C 49.730469 -56.484375 49.054688 -57.15625 47.820312 -57.15625 C 41.628906 -57.15625 -7.761719 -1.125 -7.761719 5.851562 C -7.761719 6.414062 -7.425781 6.75 -6.863281 6.75 Z M 5.625 -11.925781 C 20.476562 -30.265625 44.21875 -55.808594 47.820312 -55.808594 C 48.382812 -55.808594 48.492188 -55.695312 48.492188 -55.246094 C 48.492188 -50.292969 28.242188 -27.230469 5.625 -11.925781 Z M 5.625 -11.925781 "/></g></g></g><g fill="#ffffff" fill-opacity="1"><g transform="translate(230.659086, 250.213431)"><g><path d="M 3.714844 0.335938 C 7.199219 0.335938 18.113281 -2.8125 25.992188 -8.664062 C 26.214844 -8.777344 26.328125 -9 26.328125 -9.226562 C 26.328125 -9.5625 25.992188 -9.789062 25.652344 -9.789062 C 25.539062 -9.789062 25.429688 -9.789062 25.316406 -9.675781 C 17.550781 -4.050781 6.976562 -1.011719 3.714844 -1.011719 C 1.125 -1.011719 -0.226562 -1.6875 -0.226562 -3.152344 C -0.226562 -4.613281 0.898438 -6.414062 2.363281 -7.988281 C 3.039062 -7.652344 3.9375 -7.539062 5.175781 -7.539062 C 7.199219 -7.539062 9.789062 -9.226562 9.789062 -10.6875 C 9.789062 -11.8125 9 -12.488281 7.761719 -12.488281 C 4.050781 -12.488281 -1.574219 -6.863281 -1.574219 -3.152344 C -1.574219 -0.898438 0.449219 0.335938 3.714844 0.335938 Z M 5.175781 -8.777344 C 4.386719 -8.777344 3.824219 -8.890625 3.375 -9 C 4.839844 -10.238281 6.414062 -11.140625 7.761719 -11.140625 C 8.324219 -11.140625 8.550781 -11.027344 8.550781 -10.6875 C 8.550781 -10.015625 6.414062 -8.777344 5.175781 -8.777344 Z M 5.175781 -8.777344 "/></g></g></g><g fill="#ffffff" fill-opacity="1"><g transform="translate(253.723976, 250.213431)"><g><path d="M 1.460938 12.152344 C 8.214844 12.152344 27.792969 -0.5625 39.042969 -8.664062 C 39.15625 -8.777344 39.269531 -9 39.269531 -9.226562 C 39.269531 -9.5625 39.042969 -9.789062 38.59375 -9.789062 C 38.480469 -9.789062 38.367188 -9.789062 38.253906 -9.675781 C 27.117188 -1.574219 7.875 10.800781 1.460938 10.800781 C 0.113281 10.800781 -0.335938 10.351562 -0.335938 9.226562 C -0.335938 5.964844 5.402344 0.335938 10.914062 -5.0625 C 15.753906 -9.902344 20.589844 -14.625 20.589844 -17.328125 C 20.589844 -18.675781 19.015625 -19.578125 17.101562 -21.378906 C 21.378906 -25.992188 24.527344 -30.152344 24.527344 -31.730469 C 24.527344 -32.515625 24.078125 -33.078125 23.289062 -33.078125 C 19.800781 -33.078125 11.925781 -27.117188 11.925781 -24.304688 C 11.925781 -23.289062 13.050781 -22.503906 15.078125 -21.152344 C 11.363281 -17.214844 6.636719 -12.9375 2.136719 -9.675781 C 2.023438 -9.5625 1.914062 -9.339844 1.914062 -9.226562 C 1.914062 -8.777344 2.136719 -8.550781 2.476562 -8.550781 C 2.699219 -8.550781 2.8125 -8.550781 2.925781 -8.664062 C 6.976562 -11.589844 12.039062 -16.089844 16.203125 -20.476562 C 18.453125 -18.902344 19.238281 -18.113281 19.238281 -17.328125 C 19.238281 -15.191406 14.851562 -10.800781 10.015625 -6.074219 C 4.5 -0.5625 -1.574219 5.402344 -1.574219 9.226562 C -1.574219 11.027344 -0.675781 12.152344 1.460938 12.152344 Z M 15.976562 -22.054688 C 13.953125 -23.402344 13.277344 -24.078125 13.277344 -24.304688 C 13.277344 -26.214844 19.691406 -31.054688 22.726562 -31.617188 C 23.066406 -31.730469 23.289062 -31.503906 23.179688 -31.167969 C 22.390625 -29.253906 18.339844 -24.527344 15.976562 -22.054688 Z M 15.976562 -22.054688 "/></g></g></g><g fill="#262920" fill-opacity="1"><g transform="translate(157.508821, 273.256153)"><g><path d="M 5.953125 -6.734375 C 6.109375 -6.640625 6.1875 -6.503906 6.1875 -6.328125 C 6.1875 -6.203125 6.144531 -6.085938 6.0625 -5.984375 C 5.988281 -5.878906 5.878906 -5.828125 5.734375 -5.828125 C 5.640625 -5.828125 5.546875 -5.847656 5.453125 -5.890625 C 5.035156 -6.128906 4.582031 -6.25 4.09375 -6.25 C 3.582031 -6.25 3.128906 -6.132812 2.734375 -5.90625 C 2.335938 -5.6875 2.03125 -5.375 1.8125 -4.96875 C 1.59375 -4.5625 1.484375 -4.097656 1.484375 -3.578125 C 1.484375 -3.015625 1.597656 -2.523438 1.828125 -2.109375 C 2.054688 -1.703125 2.367188 -1.390625 2.765625 -1.171875 C 3.160156 -0.960938 3.601562 -0.859375 4.09375 -0.859375 C 4.59375 -0.859375 5.046875 -0.976562 5.453125 -1.21875 C 5.535156 -1.257812 5.625 -1.28125 5.71875 -1.28125 C 5.875 -1.28125 5.992188 -1.222656 6.078125 -1.109375 C 6.160156 -1.003906 6.203125 -0.894531 6.203125 -0.78125 C 6.203125 -0.707031 6.175781 -0.632812 6.125 -0.5625 C 6.082031 -0.488281 6.023438 -0.429688 5.953125 -0.390625 C 5.691406 -0.234375 5.394531 -0.109375 5.0625 -0.015625 C 4.726562 0.0664062 4.40625 0.109375 4.09375 0.109375 C 3.425781 0.109375 2.816406 -0.0351562 2.265625 -0.328125 C 1.710938 -0.628906 1.269531 -1.054688 0.9375 -1.609375 C 0.601562 -2.171875 0.4375 -2.828125 0.4375 -3.578125 C 0.4375 -4.265625 0.59375 -4.882812 0.90625 -5.4375 C 1.226562 -6 1.664062 -6.4375 2.21875 -6.75 C 2.78125 -7.0625 3.40625 -7.21875 4.09375 -7.21875 C 4.75 -7.21875 5.367188 -7.054688 5.953125 -6.734375 Z M 5.953125 -6.734375 "/></g></g></g><g fill="#262920" fill-opacity="1"><g transform="translate(172.210836, 273.256153)"><g><path d="M 6.34375 -0.640625 C 6.363281 -0.578125 6.375 -0.507812 6.375 -0.4375 C 6.375 -0.300781 6.328125 -0.1875 6.234375 -0.09375 C 6.140625 -0.0078125 6.035156 0.03125 5.921875 0.03125 C 5.828125 0.03125 5.738281 0.00390625 5.65625 -0.046875 C 5.570312 -0.109375 5.507812 -0.191406 5.46875 -0.296875 L 4.828125 -1.796875 L 1.671875 -1.796875 L 1.046875 -0.28125 C 1.015625 -0.1875 0.957031 -0.109375 0.875 -0.046875 C 0.800781 0.00390625 0.71875 0.03125 0.625 0.03125 C 0.476562 0.03125 0.367188 -0.00390625 0.296875 -0.078125 C 0.222656 -0.148438 0.1875 -0.253906 0.1875 -0.390625 C 0.1875 -0.410156 0.191406 -0.460938 0.203125 -0.546875 L 2.8125 -6.859375 C 2.851562 -6.972656 2.914062 -7.054688 3 -7.109375 C 3.09375 -7.171875 3.191406 -7.195312 3.296875 -7.1875 C 3.398438 -7.1875 3.492188 -7.15625 3.578125 -7.09375 C 3.660156 -7.039062 3.71875 -6.960938 3.75 -6.859375 Z M 2.0625 -2.734375 L 4.4375 -2.734375 L 3.25 -5.59375 Z M 2.0625 -2.734375 "/></g></g></g><g fill="#262920" fill-opacity="1"><g transform="translate(186.953729, 273.256153)"><g><path d="M 1.84375 -6.21875 L 1.84375 -4.09375 L 4.359375 -4.09375 C 4.503906 -4.09375 4.625 -4.046875 4.71875 -3.953125 C 4.8125 -3.867188 4.859375 -3.757812 4.859375 -3.625 C 4.859375 -3.5 4.8125 -3.390625 4.71875 -3.296875 C 4.625 -3.210938 4.503906 -3.171875 4.359375 -3.171875 L 1.84375 -3.171875 L 1.84375 -0.484375 C 1.84375 -0.347656 1.789062 -0.234375 1.6875 -0.140625 C 1.59375 -0.046875 1.476562 0 1.34375 0 C 1.207031 0 1.085938 -0.046875 0.984375 -0.140625 C 0.890625 -0.234375 0.84375 -0.347656 0.84375 -0.484375 L 0.84375 -6.65625 C 0.84375 -6.789062 0.890625 -6.90625 0.984375 -7 C 1.085938 -7.101562 1.207031 -7.15625 1.34375 -7.15625 L 4.828125 -7.15625 C 4.960938 -7.15625 5.078125 -7.109375 5.171875 -7.015625 C 5.265625 -6.929688 5.3125 -6.816406 5.3125 -6.671875 C 5.3125 -6.546875 5.265625 -6.4375 5.171875 -6.34375 C 5.078125 -6.257812 4.960938 -6.21875 4.828125 -6.21875 Z M 1.84375 -6.21875 "/></g></g></g><g fill="#262920" fill-opacity="1"><g transform="translate(200.899564, 273.256153)"><g><path d="M 4.890625 -0.9375 C 5.035156 -0.9375 5.15625 -0.890625 5.25 -0.796875 C 5.34375 -0.703125 5.390625 -0.585938 5.390625 -0.453125 C 5.390625 -0.316406 5.34375 -0.207031 5.25 -0.125 C 5.15625 -0.0390625 5.035156 0 4.890625 0 L 1.34375 0 C 1.207031 0 1.085938 -0.046875 0.984375 -0.140625 C 0.890625 -0.234375 0.84375 -0.347656 0.84375 -0.484375 L 0.84375 -6.65625 C 0.84375 -6.789062 0.890625 -6.90625 0.984375 -7 C 1.085938 -7.101562 1.207031 -7.15625 1.34375 -7.15625 L 4.890625 -7.15625 C 5.035156 -7.15625 5.15625 -7.109375 5.25 -7.015625 C 5.34375 -6.929688 5.390625 -6.816406 5.390625 -6.671875 C 5.390625 -6.535156 5.34375 -6.425781 5.25 -6.34375 C 5.15625 -6.257812 5.035156 -6.21875 4.890625 -6.21875 L 1.859375 -6.21875 L 1.859375 -4.125 L 4.4375 -4.125 C 4.582031 -4.125 4.695312 -4.078125 4.78125 -3.984375 C 4.875 -3.898438 4.921875 -3.789062 4.921875 -3.65625 C 4.921875 -3.507812 4.875 -3.394531 4.78125 -3.3125 C 4.695312 -3.238281 4.582031 -3.203125 4.4375 -3.203125 L 1.859375 -3.203125 L 1.859375 -0.9375 Z M 4.890625 -0.9375 "/></g></g></g></svg>