<svg xmlns="http://www.w3.org/2000/svg" xmlns:xlink="http://www.w3.org/1999/xlink" width="500" zoomAndPan="magnify" viewBox="0 0 375 374.999991" height="500" preserveAspectRatio="xMidYMid meet" version="1.0"><defs><g/><clipPath id="b30ac93ebe"><path d="M 9.265625 63.40625 L 365.515625 63.40625 L 365.515625 351.40625 L 9.265625 351.40625 Z M 9.265625 63.40625 " clip-rule="nonzero"/></clipPath></defs><g clip-path="url(#b30ac93ebe)"><path fill="#000000" d="M 365.230469 306.492188 C 365.15625 297.226562 365.371094 289.242188 364.800781 282.976562 C 365.300781 281.449219 364.800781 275.84375 365.300781 273.398438 C 365.085938 271.664062 365.15625 269.933594 364.800781 269.320312 L 364.800781 267.640625 C 364.945312 249.5 365.015625 231.972656 364.660156 213.78125 C 364.660156 208.6875 364.585938 203.640625 364.585938 198.546875 C 364.445312 197.222656 364.375 195.847656 364.300781 194.421875 C 364.230469 188.101562 364.375 182.039062 364.375 176.027344 C 364.515625 171.03125 364.585938 165.886719 364.445312 160.792969 C 364.445312 160.6875 364.515625 160.738281 364.515625 160.792969 C 364.300781 156.460938 364.160156 150.191406 364.300781 145.046875 L 364.019531 142.089844 L 364.019531 133.785156 C 364.160156 126.195312 364.300781 117.519531 364.300781 106.824219 C 364.300781 93.636719 364.300781 80.304688 364.375 67.042969 L 364.375 63.835938 L 362.09375 63.835938 L 362.09375 65.761719 L 362.449219 65.761719 L 362.449219 67.042969 C 362.449219 68.46875 362.519531 69.96875 362.519531 71.464844 C 362.519531 73.601562 362.519531 75.8125 362.59375 78.023438 L 362.59375 91.355469 C 362.59375 99.980469 362.664062 108.609375 362.949219 117.019531 L 362.664062 116.449219 C 362.804688 118.589844 362.804688 120.871094 362.878906 122.628906 C 362.878906 123.542969 362.949219 124.460938 362.949219 125.429688 C 363.019531 131.238281 362.734375 137.300781 362.949219 143.109375 L 362.804688 142.550781 C 362.734375 150.753906 362.804688 158.703125 362.878906 166.546875 C 362.878906 170.269531 362.804688 173.988281 362.878906 177.707031 C 362.804688 185.910156 363.019531 191.414062 363.019531 199.667969 L 362.734375 199.871094 C 363.734375 213.730469 361.878906 228.964844 362.949219 243.386719 L 362.59375 242.367188 C 363.164062 244.609375 362.378906 251.078125 363.304688 250.265625 L 363.019531 252.8125 C 364.230469 262.59375 362.449219 270.644531 363.234375 282.671875 L 363.019531 281.90625 C 363.164062 285.117188 363.304688 288.835938 363.089844 291.179688 C 363.089844 290.824219 363.019531 290.976562 362.949219 290.210938 C 362.09375 302.855469 363.019531 318.46875 363.019531 333.300781 L 362.59375 331.589844 C 362.734375 333.726562 362.804688 336.507812 362.804688 339.5 L 362.804688 348.554688 C 362.59375 348.554688 362.449219 348.484375 362.164062 348.484375 L 362.023438 348.554688 L 361.382812 348.839844 L 360.953125 348.839844 C 359.8125 348.554688 360.027344 348.699219 359.527344 348.414062 C 353.6875 348.339844 352.902344 347.769531 348.769531 347.484375 C 348.769531 347.484375 348.839844 347.484375 348.769531 347.558594 C 345.921875 348.054688 342 347.769531 339.722656 347.699219 L 338.796875 347.484375 C 337.441406 346.988281 332.167969 348.414062 333.949219 347.628906 C 322.121094 347.84375 308.585938 347.84375 295.402344 347.84375 C 293.550781 348.199219 285.285156 347.84375 288.207031 348.414062 C 284.929688 347.699219 275.097656 347.558594 271.464844 347.558594 C 271.605469 347.484375 271.75 347.414062 272.320312 347.414062 C 265.265625 346.488281 263.910156 348.269531 257.285156 347.128906 C 256.214844 347.914062 245.242188 346.914062 241.46875 347.769531 C 240.683594 347.628906 240.398438 347.414062 240.683594 347.34375 C 228.714844 347.199219 215.53125 347.128906 205.488281 346.988281 C 196.863281 347.699219 184.609375 346.703125 177.128906 347.628906 C 171 347.414062 161.027344 347.058594 152.476562 347.414062 L 153.332031 347.273438 C 143.640625 347.34375 131.527344 347.34375 124.902344 347.984375 C 122.054688 347.058594 117.847656 347.273438 113.644531 346.988281 C 107.160156 347.414062 94.121094 347.273438 84.21875 347.699219 C 82.722656 347.273438 76.097656 347.914062 75.597656 347.273438 C 65.695312 347.699219 55.007812 347.914062 43.960938 347.984375 L 27.21875 347.984375 L 18.8125 347.914062 L 14.609375 347.84375 L 12.613281 347.84375 L 11.898438 347.769531 L 12.042969 347.769531 C 12.257812 339.785156 12.46875 331.945312 12.613281 324.386719 C 12.46875 323.03125 12.328125 321.679688 12.113281 320.253906 C 11.972656 310.984375 11.898438 300.71875 11.898438 291.332031 C 11.972656 289.652344 12.042969 287.917969 11.898438 286.136719 L 11.898438 285.015625 L 12.042969 284.757812 L 12.113281 282.007812 C 12.183594 282.058594 12.328125 282.058594 12.398438 282.261719 L 12.398438 282.824219 L 12.398438 282.3125 C 12.46875 282.464844 12.542969 282.671875 12.542969 282.976562 L 12.542969 268.605469 C 12.613281 268.710938 12.683594 268.8125 12.613281 269.167969 C 13.253906 265.5 12.542969 263.96875 12.542969 261.625 L 12.542969 261.167969 C 12.542969 260.351562 12.683594 259.488281 12.898438 258.367188 C 12.183594 257.703125 12.96875 250.875 12.398438 247.714844 L 12.398438 246.59375 C 12.542969 246.390625 12.613281 246.289062 12.683594 246.441406 C 12.828125 237.882812 12.898438 228.40625 13.039062 221.121094 C 12.328125 214.902344 13.324219 206.089844 12.398438 200.789062 C 12.613281 196.355469 12.96875 189.222656 12.613281 183.058594 L 12.753906 183.667969 C 12.683594 176.6875 12.683594 168.027344 12.042969 163.238281 C 12.96875 161.199219 12.753906 158.191406 13.039062 155.1875 C 12.613281 150.550781 12.753906 141.175781 12.328125 134.09375 C 12.753906 133.023438 12.183594 128.230469 12.753906 127.875 C 12.328125 120.585938 12.113281 109.820312 12.042969 98.699219 L 12.042969 81.875 L 12.113281 73.460938 L 12.183594 69.253906 L 12.183594 67.257812 L 12.257812 66.546875 L 12.96875 66.546875 C 21.164062 66.757812 29.214844 66.972656 36.980469 67.1875 C 40.683594 66.832031 44.890625 66.117188 48.664062 65.691406 C 49.023438 65.761719 49.023438 65.832031 48.167969 65.832031 C 53.582031 65.691406 58.570312 66.332031 63.984375 66.1875 C 63.914062 66.261719 63.914062 66.261719 63.058594 66.402344 C 68.117188 66.117188 73.460938 66.902344 79.445312 66.402344 L 79.800781 66.546875 L 83.578125 66.332031 C 83.507812 66.472656 83.363281 66.757812 82.222656 66.757812 C 128.25 66.972656 175.703125 65.976562 222.941406 66.117188 L 221.160156 66.332031 L 230.351562 65.976562 C 230.28125 66.046875 229.855469 66.117188 229.425781 66.1875 C 241.183594 66.546875 253.367188 65.976562 264.765625 66.046875 C 264.695312 66.117188 262.984375 66.332031 264.550781 66.472656 C 273.03125 65.902344 278.160156 67.1875 282.363281 66.046875 C 282.792969 66.117188 283.007812 66.332031 282.152344 66.472656 C 305.734375 66.117188 329.890625 66.117188 353.613281 66.332031 C 356.324219 66.1875 359.171875 66.117188 362.023438 65.976562 L 362.023438 63.980469 C 346.417969 63.90625 330.742188 63.90625 315.070312 63.835938 C 265.121094 63.550781 221.375 62.839844 172.710938 64.191406 C 172.78125 64.121094 172.355469 64.050781 173.636719 63.980469 C 159.601562 64.191406 146.847656 63.835938 133.59375 64.050781 L 133.667969 63.980469 C 101.035156 64.761719 65.550781 63.835938 33.917969 64.691406 L 10.402344 64.691406 L 10.402344 67.257812 C 10.402344 74.816406 10.476562 82.515625 10.476562 90.285156 C 9.761719 116.234375 9.976562 135.976562 10.476562 154.421875 C 10.832031 177.199219 9.835938 199.261719 10.117188 221.984375 C 9.761719 239.359375 10.546875 257.398438 10.761719 275.28125 C 10.476562 281.957031 10.117188 288.835938 10.191406 296.582031 L 10.402344 295.871094 C 10.117188 298.652344 10.191406 301.714844 10.402344 304.640625 C 10.332031 308.0625 10.332031 311.554688 10.402344 315.046875 C 10.402344 315.121094 10.402344 315.261719 10.332031 315.332031 L 10.261719 314.621094 C 10.046875 315.976562 10.191406 317.542969 10.402344 319.113281 C 10.402344 320.464844 10.476562 321.75 10.476562 323.105469 L 10.6875 334.082031 C 10.546875 336.863281 11.257812 343.777344 10.191406 343.992188 C 10.191406 341.570312 9.691406 347.769531 9.40625 342.351562 C 9.335938 342.996094 9.335938 344.5625 9.335938 346.203125 C 9.335938 346.703125 9.40625 347.199219 9.40625 347.628906 C 9.476562 348.625 9.621094 349.339844 9.761719 349.125 C 10.332031 349.695312 10.761719 352.191406 11.1875 348.769531 L 12.753906 348.769531 C 14.464844 348.769531 16.175781 348.769531 17.886719 348.839844 C 20.238281 348.910156 22.515625 348.984375 24.652344 349.054688 C 64.980469 350.550781 104.027344 349.625 144.355469 348.699219 C 178.554688 349.195312 212.753906 348.054688 246.027344 348.769531 C 227.644531 348.910156 209.476562 349.195312 190.523438 349.410156 C 190.953125 349.339844 191.164062 349.269531 191.59375 349.195312 C 190.167969 349.339844 188.601562 349.554688 186.960938 349.484375 C 186.535156 349.410156 187.390625 349.339844 187.960938 349.269531 C 181.6875 348.699219 169.648438 349.625 165.730469 349.195312 C 163.949219 349.269531 163.164062 349.484375 164.160156 349.695312 C 141.078125 349.839844 116.351562 349.980469 92.769531 350.410156 C 91.628906 350.339844 91.414062 350.195312 91.773438 349.980469 C 71.679688 350.910156 50.589844 350.550781 29.996094 350.410156 C 29.214844 350.625 32.0625 350.695312 30.070312 350.910156 C 36.695312 351.195312 42.179688 350.339844 48.167969 350.765625 L 47.382812 350.980469 C 51.730469 351.121094 48.238281 350.410156 52.796875 350.695312 C 54.578125 350.910156 52.371094 350.980469 53.152344 351.050781 C 62.417969 350.980469 72.105469 351.195312 80.871094 350.625 C 83.007812 351.121094 90.84375 350.625 94.265625 351.121094 C 96.6875 350.910156 99.039062 350.980469 99.964844 350.625 C 132.457031 350.910156 165.65625 350.410156 198.929688 350.410156 C 214.535156 349.410156 233.132812 350.625 251.65625 350.265625 C 251.800781 350.265625 251.726562 350.339844 251.65625 350.339844 C 257.710938 350.125 266.476562 349.980469 273.671875 350.125 L 279.800781 349.695312 C 293.550781 349.980469 307.445312 350.125 321.339844 350.125 L 357.175781 350.125 C 356.964844 350.195312 356.324219 350.265625 354.96875 350.339844 C 356.039062 350.410156 360.097656 350.410156 362.09375 350.195312 C 362.378906 350.195312 362.664062 350.125 362.878906 350.125 L 364.300781 350.125 L 364.300781 349.269531 C 364.730469 349.054688 363.945312 349.125 364.300781 348.699219 L 364.300781 331.515625 C 364.585938 332.585938 364.160156 336.152344 364.660156 335.652344 C 364.871094 333.15625 364.515625 332.085938 364.300781 331.515625 C 364.300781 321.320312 364.375 311.054688 364.375 300.859375 C 364.445312 294.375 364.445312 289.550781 364.515625 285.015625 C 364.871094 297.4375 364.585938 313.621094 364.515625 329.519531 C 364.730469 330.304688 364.800781 327.453125 365.015625 329.449219 C 365.300781 322.820312 364.445312 317.328125 364.871094 311.339844 L 365.085938 312.125 C 365.230469 307.777344 364.515625 311.269531 364.800781 306.707031 C 365.085938 305.066406 365.15625 307.347656 365.230469 306.492188 M 338.722656 348.625 L 340.292969 348.625 C 339.933594 348.554688 339.4375 348.554688 338.722656 348.625 " fill-opacity="1" fill-rule="nonzero"/></g><g fill="#000000" fill-opacity="1"><g transform="translate(43.367262, 141.74985)"><g><path d="M 56.34375 0 L 56.28125 -44.71875 L 34.515625 -6.875 L 33.234375 -6.875 L 11.40625 -44.578125 L 11.40625 0 L 9.078125 0 L 9.078125 -49.609375 L 11.0625 -49.609375 L 33.875 -9.921875 L 56.625 -49.609375 L 58.609375 -49.609375 L 58.6875 0 Z M 56.34375 0 "/></g></g></g><g fill="#000000" fill-opacity="1"><g transform="translate(167.827662, 141.74985)"><g><path d="M 39.484375 -14.53125 L 9.78125 -14.53125 L 3.125 0 L 0.5 0 L 23.453125 -49.609375 L 25.796875 -49.609375 L 48.765625 0 L 46.140625 0 Z M 38.5625 -16.578125 L 24.671875 -46.84375 L 10.703125 -16.578125 Z M 38.5625 -16.578125 "/></g></g></g><g fill="#000000" fill-opacity="1"><g transform="translate(273.861711, 141.74985)"><g><path d="M 48.6875 -49.609375 L 48.6875 0 L 46.703125 0 L 11.484375 -45.21875 L 11.484375 0 L 9.078125 0 L 9.078125 -49.609375 L 11.0625 -49.609375 L 46.28125 -4.390625 L 46.28125 -49.609375 Z M 48.6875 -49.609375 "/></g></g></g><g fill="#000000" fill-opacity="1"><g transform="translate(55.82753, 239.683187)"><g><path d="M 39.484375 -14.53125 L 9.78125 -14.53125 L 3.125 0 L 0.5 0 L 23.453125 -49.609375 L 25.796875 -49.609375 L 48.765625 0 L 46.140625 0 Z M 38.5625 -16.578125 L 24.671875 -46.84375 L 10.703125 -16.578125 Z M 38.5625 -16.578125 "/></g></g></g><g fill="#000000" fill-opacity="1"><g transform="translate(161.861579, 239.683187)"><g><path d="M 21.609375 0.28125 C 18.023438 0.28125 14.613281 -0.351562 11.375 -1.625 C 8.132812 -2.90625 5.640625 -4.5625 3.890625 -6.59375 L 5.171875 -8.296875 C 6.828125 -6.398438 9.128906 -4.847656 12.078125 -3.640625 C 15.035156 -2.441406 18.191406 -1.84375 21.546875 -1.84375 C 26.503906 -1.84375 30.25 -2.820312 32.78125 -4.78125 C 35.3125 -6.738281 36.578125 -9.253906 36.578125 -12.328125 C 36.578125 -14.691406 35.914062 -16.59375 34.59375 -18.03125 C 33.269531 -19.476562 31.640625 -20.566406 29.703125 -21.296875 C 27.765625 -22.023438 25.117188 -22.789062 21.765625 -23.59375 C 18.171875 -24.5 15.285156 -25.375 13.109375 -26.21875 C 10.941406 -27.070312 9.097656 -28.375 7.578125 -30.125 C 6.066406 -31.875 5.3125 -34.210938 5.3125 -37.140625 C 5.3125 -39.453125 5.925781 -41.578125 7.15625 -43.515625 C 8.382812 -45.453125 10.257812 -47 12.78125 -48.15625 C 15.3125 -49.3125 18.46875 -49.890625 22.25 -49.890625 C 24.945312 -49.890625 27.601562 -49.488281 30.21875 -48.6875 C 32.84375 -47.882812 35.078125 -46.773438 36.921875 -45.359375 L 35.859375 -43.453125 C 33.921875 -44.867188 31.757812 -45.941406 29.375 -46.671875 C 26.988281 -47.398438 24.640625 -47.765625 22.328125 -47.765625 C 17.503906 -47.765625 13.851562 -46.757812 11.375 -44.75 C 8.894531 -42.75 7.65625 -40.210938 7.65625 -37.140625 C 7.65625 -34.734375 8.328125 -32.804688 9.671875 -31.359375 C 11.015625 -29.921875 12.664062 -28.820312 14.625 -28.0625 C 16.59375 -27.3125 19.226562 -26.535156 22.53125 -25.734375 C 26.125 -24.828125 29.003906 -23.960938 31.171875 -23.140625 C 33.347656 -22.316406 35.179688 -21.039062 36.671875 -19.3125 C 38.160156 -17.582031 38.90625 -15.28125 38.90625 -12.40625 C 38.90625 -10.09375 38.28125 -7.96875 37.03125 -6.03125 C 35.78125 -4.09375 33.851562 -2.554688 31.25 -1.421875 C 28.65625 -0.285156 25.441406 0.28125 21.609375 0.28125 Z M 21.609375 0.28125 "/></g></g></g><g fill="#000000" fill-opacity="1"><g transform="translate(261.375526, 239.683187)"><g><path d="M 48.6875 -49.609375 L 48.6875 0 L 46.28125 0 L 46.28125 -24.09375 L 11.484375 -24.09375 L 11.484375 0 L 9.078125 0 L 9.078125 -49.609375 L 11.484375 -49.609375 L 11.484375 -26.296875 L 46.28125 -26.296875 L 46.28125 -49.609375 Z M 48.6875 -49.609375 "/></g></g></g><g fill="#000000" fill-opacity="1"><g transform="translate(91.833287, 310.101174)"><g><path d="M 24.9375 -9.171875 L 6.171875 -9.171875 L 1.96875 0 L 0.3125 0 L 14.8125 -31.34375 L 16.296875 -31.34375 L 30.796875 0 L 29.140625 0 Z M 24.359375 -10.46875 L 15.578125 -29.59375 L 6.765625 -10.46875 Z M 24.359375 -10.46875 "/></g></g></g><g fill="#000000" fill-opacity="1"><g transform="translate(138.214821, 310.101174)"><g><path d="M 5.734375 -31.34375 L 7.25 -31.34375 L 7.25 -1.390625 L 25.609375 -1.390625 L 25.609375 0 L 5.734375 0 Z M 5.734375 -31.34375 "/></g></g></g><g fill="#000000" fill-opacity="1"><g transform="translate(179.492614, 310.101174)"><g><path d="M 5.734375 -31.34375 L 7.25 -31.34375 L 7.25 0 L 5.734375 0 Z M 5.734375 -31.34375 "/></g></g></g><g fill="#000000" fill-opacity="1"><g transform="translate(207.697666, 310.101174)"><g><path d="M 29.953125 -31.34375 L 15.890625 0 L 14.421875 0 L 0.359375 -31.34375 L 2.0625 -31.34375 L 15.21875 -1.96875 L 28.34375 -31.34375 Z M 29.953125 -31.34375 "/></g></g></g><g fill="#000000" fill-opacity="1"><g transform="translate(253.228581, 310.101174)"><g><path d="M 26.90625 -1.390625 L 26.90625 0 L 5.734375 0 L 5.734375 -31.34375 L 26.28125 -31.34375 L 26.28125 -29.953125 L 7.25 -29.953125 L 7.25 -16.609375 L 24.265625 -16.609375 L 24.265625 -15.21875 L 7.25 -15.21875 L 7.25 -1.390625 Z M 26.90625 -1.390625 "/></g></g></g><g fill="#000000" fill-opacity="1"><g transform="translate(97.165779, 47.554435)"><g><path d="M 15.6875 -0.8125 L 15.6875 0 L 3.34375 0 L 3.34375 -18.28125 L 15.328125 -18.28125 L 15.328125 -17.46875 L 4.234375 -17.46875 L 4.234375 -9.6875 L 14.15625 -9.6875 L 14.15625 -8.875 L 4.234375 -8.875 L 4.234375 -0.8125 Z M 15.6875 -0.8125 "/></g></g></g><g fill="#000000" fill-opacity="1"><g transform="translate(123.480917, 47.554435)"><g><path d="M 7.96875 0.109375 C 6.644531 0.109375 5.382812 -0.125 4.1875 -0.59375 C 3 -1.070312 2.082031 -1.679688 1.4375 -2.421875 L 1.90625 -3.0625 C 2.507812 -2.363281 3.351562 -1.789062 4.4375 -1.34375 C 5.53125 -0.894531 6.695312 -0.671875 7.9375 -0.671875 C 9.757812 -0.671875 11.132812 -1.03125 12.0625 -1.75 C 13 -2.476562 13.46875 -3.410156 13.46875 -4.546875 C 13.46875 -5.410156 13.222656 -6.109375 12.734375 -6.640625 C 12.253906 -7.171875 11.65625 -7.570312 10.9375 -7.84375 C 10.226562 -8.113281 9.253906 -8.394531 8.015625 -8.6875 C 6.691406 -9.019531 5.628906 -9.34375 4.828125 -9.65625 C 4.023438 -9.96875 3.34375 -10.445312 2.78125 -11.09375 C 2.226562 -11.738281 1.953125 -12.601562 1.953125 -13.6875 C 1.953125 -14.53125 2.175781 -15.3125 2.625 -16.03125 C 3.082031 -16.75 3.773438 -17.316406 4.703125 -17.734375 C 5.640625 -18.160156 6.804688 -18.375 8.203125 -18.375 C 9.191406 -18.375 10.164062 -18.226562 11.125 -17.9375 C 12.09375 -17.644531 12.921875 -17.234375 13.609375 -16.703125 L 13.21875 -16 C 12.5 -16.519531 11.695312 -16.914062 10.8125 -17.1875 C 9.9375 -17.457031 9.070312 -17.59375 8.21875 -17.59375 C 6.445312 -17.59375 5.101562 -17.222656 4.1875 -16.484375 C 3.269531 -15.742188 2.8125 -14.8125 2.8125 -13.6875 C 2.8125 -12.789062 3.0625 -12.078125 3.5625 -11.546875 C 4.0625 -11.015625 4.671875 -10.609375 5.390625 -10.328125 C 6.109375 -10.054688 7.078125 -9.773438 8.296875 -9.484375 C 9.617188 -9.148438 10.679688 -8.828125 11.484375 -8.515625 C 12.285156 -8.210938 12.957031 -7.742188 13.5 -7.109375 C 14.050781 -6.472656 14.328125 -5.625 14.328125 -4.5625 C 14.328125 -3.71875 14.097656 -2.9375 13.640625 -2.21875 C 13.179688 -1.507812 12.472656 -0.941406 11.515625 -0.515625 C 10.554688 -0.0976562 9.375 0.109375 7.96875 0.109375 Z M 7.96875 0.109375 "/></g></g></g><g fill="#000000" fill-opacity="1"><g transform="translate(148.125593, 47.554435)"><g><path d="M 6.8125 -17.46875 L 0.109375 -17.46875 L 0.109375 -18.28125 L 14.390625 -18.28125 L 14.390625 -17.46875 L 7.671875 -17.46875 L 7.671875 0 L 6.8125 0 Z M 6.8125 -17.46875 "/></g></g></g><g fill="#000000" fill-opacity="1"><g transform="translate(171.491323, 47.554435)"><g><path d="M 2.484375 0.078125 C 2.234375 0.078125 2.023438 -0.00390625 1.859375 -0.171875 C 1.703125 -0.335938 1.625 -0.539062 1.625 -0.78125 C 1.625 -1.03125 1.707031 -1.234375 1.875 -1.390625 C 2.050781 -1.554688 2.253906 -1.640625 2.484375 -1.640625 C 2.722656 -1.640625 2.925781 -1.554688 3.09375 -1.390625 C 3.257812 -1.234375 3.34375 -1.03125 3.34375 -0.78125 C 3.34375 -0.539062 3.257812 -0.335938 3.09375 -0.171875 C 2.925781 -0.00390625 2.722656 0.078125 2.484375 0.078125 Z M 2.484375 0.078125 "/></g></g></g><g fill="#000000" fill-opacity="1"><g transform="translate(185.330204, 47.554435)"><g><path d="M 13.46875 -0.8125 L 13.46875 0 L 1.09375 0 L 1.09375 -0.625 L 8.921875 -8.515625 C 9.984375 -9.578125 10.703125 -10.484375 11.078125 -11.234375 C 11.453125 -11.992188 11.640625 -12.773438 11.640625 -13.578125 C 11.640625 -14.816406 11.21875 -15.789062 10.375 -16.5 C 9.53125 -17.21875 8.328125 -17.578125 6.765625 -17.578125 C 5.546875 -17.578125 4.488281 -17.394531 3.59375 -17.03125 C 2.695312 -16.675781 1.925781 -16.125 1.28125 -15.375 L 0.671875 -15.953125 C 2.085938 -17.566406 4.125 -18.375 6.78125 -18.375 C 8.539062 -18.375 9.929688 -17.945312 10.953125 -17.09375 C 11.984375 -16.25 12.5 -15.09375 12.5 -13.625 C 12.5 -12.707031 12.289062 -11.820312 11.875 -10.96875 C 11.457031 -10.113281 10.6875 -9.117188 9.5625 -7.984375 L 2.421875 -0.8125 Z M 13.46875 -0.8125 "/></g></g></g><g fill="#000000" fill-opacity="1"><g transform="translate(208.774243, 47.554435)"><g><path d="M 8.53125 0.109375 C 7.15625 0.109375 5.929688 -0.269531 4.859375 -1.03125 C 3.796875 -1.789062 2.96875 -2.867188 2.375 -4.265625 C 1.78125 -5.671875 1.484375 -7.296875 1.484375 -9.140625 C 1.484375 -10.984375 1.78125 -12.601562 2.375 -14 C 2.96875 -15.40625 3.796875 -16.484375 4.859375 -17.234375 C 5.929688 -17.992188 7.15625 -18.375 8.53125 -18.375 C 9.925781 -18.375 11.15625 -17.992188 12.21875 -17.234375 C 13.28125 -16.484375 14.109375 -15.40625 14.703125 -14 C 15.296875 -12.601562 15.59375 -10.984375 15.59375 -9.140625 C 15.59375 -7.296875 15.296875 -5.671875 14.703125 -4.265625 C 14.109375 -2.867188 13.28125 -1.789062 12.21875 -1.03125 C 11.15625 -0.269531 9.925781 0.109375 8.53125 0.109375 Z M 8.53125 -0.703125 C 9.75 -0.703125 10.828125 -1.039062 11.765625 -1.71875 C 12.710938 -2.394531 13.441406 -3.367188 13.953125 -4.640625 C 14.460938 -5.910156 14.71875 -7.410156 14.71875 -9.140625 C 14.71875 -10.859375 14.460938 -12.351562 13.953125 -13.625 C 13.441406 -14.894531 12.710938 -15.867188 11.765625 -16.546875 C 10.828125 -17.234375 9.75 -17.578125 8.53125 -17.578125 C 7.3125 -17.578125 6.238281 -17.234375 5.3125 -16.546875 C 4.382812 -15.867188 3.660156 -14.894531 3.140625 -13.625 C 2.628906 -12.351562 2.375 -10.859375 2.375 -9.140625 C 2.375 -7.410156 2.628906 -5.910156 3.140625 -4.640625 C 3.660156 -3.367188 4.382812 -2.394531 5.3125 -1.71875 C 6.238281 -1.039062 7.3125 -0.703125 8.53125 -0.703125 Z M 8.53125 -0.703125 "/></g></g></g><g fill="#000000" fill-opacity="1"><g transform="translate(234.750086, 47.554435)"><g><path d="M 8.53125 0.109375 C 7.15625 0.109375 5.929688 -0.269531 4.859375 -1.03125 C 3.796875 -1.789062 2.96875 -2.867188 2.375 -4.265625 C 1.78125 -5.671875 1.484375 -7.296875 1.484375 -9.140625 C 1.484375 -10.984375 1.78125 -12.601562 2.375 -14 C 2.96875 -15.40625 3.796875 -16.484375 4.859375 -17.234375 C 5.929688 -17.992188 7.15625 -18.375 8.53125 -18.375 C 9.925781 -18.375 11.15625 -17.992188 12.21875 -17.234375 C 13.28125 -16.484375 14.109375 -15.40625 14.703125 -14 C 15.296875 -12.601562 15.59375 -10.984375 15.59375 -9.140625 C 15.59375 -7.296875 15.296875 -5.671875 14.703125 -4.265625 C 14.109375 -2.867188 13.28125 -1.789062 12.21875 -1.03125 C 11.15625 -0.269531 9.925781 0.109375 8.53125 0.109375 Z M 8.53125 -0.703125 C 9.75 -0.703125 10.828125 -1.039062 11.765625 -1.71875 C 12.710938 -2.394531 13.441406 -3.367188 13.953125 -4.640625 C 14.460938 -5.910156 14.71875 -7.410156 14.71875 -9.140625 C 14.71875 -10.859375 14.460938 -12.351562 13.953125 -13.625 C 13.441406 -14.894531 12.710938 -15.867188 11.765625 -16.546875 C 10.828125 -17.234375 9.75 -17.578125 8.53125 -17.578125 C 7.3125 -17.578125 6.238281 -17.234375 5.3125 -16.546875 C 4.382812 -15.867188 3.660156 -14.894531 3.140625 -13.625 C 2.628906 -12.351562 2.375 -10.859375 2.375 -9.140625 C 2.375 -7.410156 2.628906 -5.910156 3.140625 -4.640625 C 3.660156 -3.367188 4.382812 -2.394531 5.3125 -1.71875 C 6.238281 -1.039062 7.3125 -0.703125 8.53125 -0.703125 Z M 8.53125 -0.703125 "/></g></g></g><g fill="#000000" fill-opacity="1"><g transform="translate(260.725928, 47.554435)"><g><path d="M 8.53125 0.109375 C 7.15625 0.109375 5.929688 -0.269531 4.859375 -1.03125 C 3.796875 -1.789062 2.96875 -2.867188 2.375 -4.265625 C 1.78125 -5.671875 1.484375 -7.296875 1.484375 -9.140625 C 1.484375 -10.984375 1.78125 -12.601562 2.375 -14 C 2.96875 -15.40625 3.796875 -16.484375 4.859375 -17.234375 C 5.929688 -17.992188 7.15625 -18.375 8.53125 -18.375 C 9.925781 -18.375 11.15625 -17.992188 12.21875 -17.234375 C 13.28125 -16.484375 14.109375 -15.40625 14.703125 -14 C 15.296875 -12.601562 15.59375 -10.984375 15.59375 -9.140625 C 15.59375 -7.296875 15.296875 -5.671875 14.703125 -4.265625 C 14.109375 -2.867188 13.28125 -1.789062 12.21875 -1.03125 C 11.15625 -0.269531 9.925781 0.109375 8.53125 0.109375 Z M 8.53125 -0.703125 C 9.75 -0.703125 10.828125 -1.039062 11.765625 -1.71875 C 12.710938 -2.394531 13.441406 -3.367188 13.953125 -4.640625 C 14.460938 -5.910156 14.71875 -7.410156 14.71875 -9.140625 C 14.71875 -10.859375 14.460938 -12.351562 13.953125 -13.625 C 13.441406 -14.894531 12.710938 -15.867188 11.765625 -16.546875 C 10.828125 -17.234375 9.75 -17.578125 8.53125 -17.578125 C 7.3125 -17.578125 6.238281 -17.234375 5.3125 -16.546875 C 4.382812 -15.867188 3.660156 -14.894531 3.140625 -13.625 C 2.628906 -12.351562 2.375 -10.859375 2.375 -9.140625 C 2.375 -7.410156 2.628906 -5.910156 3.140625 -4.640625 C 3.660156 -3.367188 4.382812 -2.394531 5.3125 -1.71875 C 6.238281 -1.039062 7.3125 -0.703125 8.53125 -0.703125 Z M 8.53125 -0.703125 "/></g></g></g>

</svg>