<svg xmlns="http://www.w3.org/2000/svg" xmlns:xlink="http://www.w3.org/1999/xlink" width="3000" zoomAndPan="magnify" viewBox="0 0 2250 2250.000011" height="3000" preserveAspectRatio="xMidYMid meet" version="1.0"><defs><g/><clipPath id="96223b17e5"><path d="M 380 104 L 1881 104 L 1881 1336 L 380 1336 Z M 380 104 " clip-rule="nonzero"/></clipPath><clipPath id="e59d4e3535"><path d="M 435.789062 44.136719 L 1937.515625 168.0625 L 1814.449219 1659.328125 L 312.726562 1535.402344 Z M 435.789062 44.136719 " clip-rule="nonzero"/></clipPath><clipPath id="e24daf4349"><path d="M 435.789062 44.136719 L 1937.515625 168.0625 L 1814.449219 1659.328125 L 312.726562 1535.402344 Z M 435.789062 44.136719 " clip-rule="nonzero"/></clipPath><clipPath id="8e5aabd464"><path d="M 1519 1328 L 1723 1328 L 1723 1495 L 1519 1495 Z M 1519 1328 " clip-rule="nonzero"/></clipPath><clipPath id="51ce44733f"><path d="M 435.789062 44.136719 L 1937.515625 168.0625 L 1814.449219 1659.328125 L 312.726562 1535.402344 Z M 435.789062 44.136719 " clip-rule="nonzero"/></clipPath><clipPath id="a24b2fe224"><path d="M 435.789062 44.136719 L 1937.515625 168.0625 L 1814.449219 1659.328125 L 312.726562 1535.402344 Z M 435.789062 44.136719 " clip-rule="nonzero"/></clipPath><clipPath id="bbb7345f43"><path d="M 1607 1554 L 1710 1554 L 1710 1647 L 1607 1647 Z M 1607 1554 " clip-rule="nonzero"/></clipPath><clipPath id="55bd0b6b6c"><path d="M 435.789062 44.136719 L 1937.515625 168.0625 L 1814.449219 1659.328125 L 312.726562 1535.402344 Z M 435.789062 44.136719 " clip-rule="nonzero"/></clipPath><clipPath id="825176a26e"><path d="M 435.789062 44.136719 L 1937.515625 168.0625 L 1814.449219 1659.328125 L 312.726562 1535.402344 Z M 435.789062 44.136719 " clip-rule="nonzero"/></clipPath><clipPath id="a5f7ff8a15"><path d="M 644.945312 688 L 1620 688 L 1620 1587 L 644.945312 1587 Z M 644.945312 688 " clip-rule="nonzero"/></clipPath></defs><g clip-path="url(#96223b17e5)"><g clip-path="url(#e59d4e3535)"><g clip-path="url(#e24daf4349)"><path fill="#5271ff" d="M 1215.917969 108.640625 C 976.382812 84.605469 777.945312 168.667969 586.566406 304.242188 C 347.804688 476.921875 308.683594 893.390625 509.699219 1115.160156 C 773.40625 1411.421875 1566.457031 1420.816406 1807.453125 1072.898438 C 1993.480469 802.445312 1799.121094 374.238281 1523.417969 245.8125 C 1434.195312 201.195312 1338.917969 144.277344 1243.425781 118.003906 L 1215.925781 108.65625 " fill-opacity="1" fill-rule="nonzero"/></g></g></g><g clip-path="url(#8e5aabd464)"><g clip-path="url(#51ce44733f)"><g clip-path="url(#a24b2fe224)"><path fill="#5271ff" d="M 1633.003906 1329.03125 C 1600.601562 1325.78125 1573.769531 1337.152344 1547.875 1355.476562 C 1515.585938 1378.828125 1510.296875 1435.148438 1537.503906 1465.144531 C 1573.136719 1505.214844 1680.394531 1506.457031 1712.996094 1459.425781 C 1738.148438 1422.859375 1711.859375 1364.960938 1674.582031 1347.59375 C 1662.519531 1341.554688 1649.632812 1333.839844 1636.722656 1330.300781 L 1633.003906 1329.03125 " fill-opacity="1" fill-rule="nonzero"/></g></g></g><g clip-path="url(#bbb7345f43)"><g clip-path="url(#55bd0b6b6c)"><g clip-path="url(#825176a26e)"><path fill="#5271ff" d="M 1662.390625 1646.78125 C 1678.609375 1646.0625 1690.605469 1637.738281 1701.363281 1625.679688 C 1714.738281 1610.371094 1711.414062 1579.039062 1694.929688 1564.699219 C 1673.226562 1545.46875 1620.460938 1553.03125 1609.414062 1581.378906 C 1600.917969 1603.386719 1619.921875 1633.15625 1640.03125 1639.796875 C 1646.578125 1642.167969 1653.730469 1645.421875 1660.433594 1646.363281 L 1662.390625 1646.78125 " fill-opacity="1" fill-rule="nonzero"/></g></g></g><path fill="#ffffff" d="M 1399.277344 956.804688 C 1388.878906 952.757812 1378.480469 948.714844 1369.234375 942.359375 C 1342.078125 922.714844 1324.746094 892.671875 1307.992188 863.78125 C 1284.878906 822.183594 1268.125 778.273438 1256.570312 732.050781 C 1251.371094 712.40625 1250.214844 689.296875 1238.660156 671.960938 C 1213.238281 634.984375 1138.707031 640.183594 1099.417969 646.539062 C 1072.839844 651.164062 1067.640625 680.628906 1061.285156 702.585938 C 1056.085938 721.074219 1053.195312 738.984375 1050.304688 758.050781 C 1043.953125 762.09375 1036.441406 765.5625 1029.507812 769.027344 C 953.242188 792.140625 939.375 836.050781 910.488281 903.648438 C 860.796875 1001.871094 726.757812 1040.003906 706.535156 1156.136719 C 693.246094 1232.402344 730.222656 1304.046875 768.933594 1368.179688 C 804.753906 1437.511719 854.441406 1471.019531 933.597656 1454.84375 C 1008.128906 1438.089844 1079.773438 1410.355469 1152.570312 1388.398438 C 1187.816406 1379.734375 1223.058594 1357.199219 1260.613281 1364.710938 C 1337.457031 1382.042969 1416.035156 1390.132812 1495.1875 1387.820312 C 1605.542969 1392.445312 1605.542969 1286.132812 1594.5625 1204.089844 C 1585.898438 1076.402344 1521.765625 994.359375 1399.277344 956.804688 Z M 1399.277344 956.804688 " fill-opacity="1" fill-rule="evenodd"/><g clip-path="url(#a5f7ff8a15)"><path fill="#000000" d="M 1406.789062 1142.269531 C 1416.035156 1148.625 1423.546875 1157.867188 1429.902344 1167.113281 C 1403.902344 1164.222656 1377.902344 1161.335938 1351.902344 1157.867188 C 1355.367188 1155.558594 1358.835938 1153.824219 1362.300781 1151.511719 C 1375.011719 1144.003906 1392.34375 1132.445312 1406.789062 1142.269531 Z M 974.617188 1219.113281 C 969.996094 1217.378906 968.261719 1209.867188 965.953125 1205.824219 C 960.175781 1192.535156 954.976562 1179.246094 949.195312 1166.535156 C 969.996094 1160.757812 990.796875 1153.824219 1012.175781 1150.9375 C 1035.285156 1147.46875 1059.550781 1146.890625 1082.660156 1147.46875 C 1130.617188 1149.203125 1177.992188 1156.714844 1224.792969 1165.378906 C 1271.59375 1173.46875 1318.96875 1181.558594 1365.769531 1187.914062 C 1411.988281 1194.269531 1458.789062 1198.890625 1505.011719 1202.355469 C 1514.253906 1202.933594 1529.277344 1206.402344 1536.210938 1199.46875 C 1541.988281 1193.691406 1541.988281 1183.289062 1535.054688 1178.667969 C 1530.433594 1175.78125 1524.078125 1175.78125 1518.875 1175.203125 C 1512.519531 1174.625 1506.164062 1174.046875 1499.234375 1173.46875 C 1496.34375 1173.46875 1494.03125 1172.890625 1491.144531 1172.890625 C 1512.519531 1164.800781 1534.476562 1160.757812 1557.585938 1161.914062 C 1558.742188 1170.003906 1564.519531 1178.089844 1567.988281 1184.445312 C 1573.765625 1196 1577.808594 1207.558594 1580.699219 1219.691406 C 1586.476562 1245.691406 1587.054688 1272.269531 1585.320312 1298.84375 C 1583.585938 1320.800781 1580.699219 1345.066406 1563.363281 1360.667969 C 1550.074219 1372.222656 1531.585938 1376.84375 1514.832031 1378 C 1495.1875 1379.734375 1474.964844 1378 1454.746094 1375.109375 C 1427.011719 1371.644531 1399.277344 1366.445312 1372.125 1359.511719 C 1319.546875 1346.800781 1269.28125 1326 1222.480469 1298.265625 C 1199.949219 1284.980469 1177.992188 1269.378906 1155.460938 1256.667969 C 1131.773438 1243.378906 1106.929688 1232.980469 1080.929688 1226.625 C 1051.460938 1219.691406 1020.839844 1216.222656 990.796875 1217.957031 C 986.753906 1219.113281 979.242188 1220.847656 974.617188 1219.113281 Z M 940.53125 1205.824219 C 943.417969 1215.644531 945.730469 1227.203125 952.664062 1235.867188 C 959.019531 1243.957031 968.839844 1246.847656 979.242188 1248 C 991.375 1249.15625 1004.085938 1248.578125 1016.21875 1248.578125 C 1041.640625 1249.734375 1066.484375 1253.777344 1090.171875 1261.289062 C 1112.707031 1268.222656 1133.503906 1279.199219 1153.726562 1291.335938 C 1172.214844 1302.3125 1190.125 1314.445312 1208.613281 1326 C 1203.414062 1328.3125 1198.792969 1330.621094 1193.59375 1332.933594 C 1183.191406 1337.554688 1172.792969 1341.601562 1162.394531 1346.222656 C 1141.59375 1354.3125 1121.371094 1362.398438 1100.574219 1369.910156 C 1058.394531 1384.933594 1015.640625 1398.222656 972.886719 1409.777344 C 952.085938 1414.976562 931.285156 1421.332031 909.910156 1422.488281 C 890.84375 1423.066406 873.507812 1417.867188 857.910156 1406.890625 C 826.132812 1383.199219 800.710938 1349.6875 780.488281 1316.179688 C 768.355469 1296.535156 757.957031 1275.734375 748.710938 1253.777344 C 744.089844 1242.800781 740.046875 1231.824219 736.578125 1220.847656 C 734.84375 1215.644531 733.113281 1210.445312 731.957031 1205.246094 C 731.378906 1202.933594 730.800781 1200.625 730.222656 1198.3125 C 762.578125 1188.492188 795.511719 1179.246094 829.019531 1174.625 C 846.933594 1171.734375 865.421875 1170.578125 883.332031 1170.578125 C 892.574219 1170.578125 901.242188 1171.15625 910.488281 1172.3125 C 915.109375 1172.890625 920.308594 1173.46875 924.929688 1174.046875 C 926.664062 1174.625 928.976562 1174.625 930.707031 1175.203125 C 934.175781 1184.445312 937.0625 1194.847656 940.53125 1205.824219 Z M 1611.898438 1163.070312 C 1613.628906 1159.601562 1614.207031 1156.136719 1614.785156 1152.089844 C 1615.363281 1149.203125 1616.519531 1145.15625 1615.363281 1141.113281 C 1614.207031 1137.070312 1610.742188 1133.023438 1608.429688 1129.558594 C 1605.542969 1125.511719 1603.230469 1121.46875 1600.34375 1117.425781 C 1595.140625 1109.335938 1589.363281 1101.246094 1584.164062 1093.160156 C 1562.210938 1060.226562 1540.832031 1027.292969 1518.875 993.78125 C 1499.808594 964.316406 1480.742188 934.847656 1460.523438 905.960938 C 1443.765625 881.117188 1425.277344 856.847656 1401.589844 837.78125 C 1372.125 813.515625 1337.457031 801.960938 1300.480469 792.714844 C 1296.4375 788.671875 1291.234375 786.359375 1285.457031 786.9375 C 1277.371094 777.695312 1271.015625 771.339844 1268.125 759.785156 C 1266.96875 754.007812 1266.96875 738.40625 1261.769531 735.515625 C 1255.414062 731.472656 1251.949219 736.671875 1250.214844 742.449219 C 1244.4375 762.09375 1251.371094 788.09375 1266.96875 807.738281 C 1260.613281 830.851562 1251.371094 863.203125 1235.769531 881.117188 C 1219.015625 900.761719 1195.90625 906.539062 1171.058594 907.117188 C 1123.683594 907.695312 1075.730469 890.359375 1039.328125 859.738281 C 1028.351562 850.492188 1017.953125 840.09375 1008.707031 829.117188 C 1001.773438 821.027344 993.683594 807.738281 987.90625 798.496094 C 987.90625 794.449219 983.285156 790.984375 1028.929688 787.515625 C 1074.574219 784.050781 1078.039062 722.226562 1078.617188 713.5625 C 1079.195312 706.628906 1082.660156 696.230469 1078.039062 690.449219 C 1075.730469 688.140625 1071.683594 687.5625 1069.375 689.296875 C 1064.171875 692.183594 1063.019531 700.273438 1061.285156 705.472656 C 1058.972656 712.984375 1052.039062 759.207031 1038.75 764.40625 C 1032.394531 766.71875 1025.460938 766.71875 1018.53125 767.292969 C 1010.441406 767.871094 1002.351562 768.449219 993.683594 769.027344 C 990.796875 769.605469 987.328125 770.183594 984.441406 770.183594 C 982.707031 770.183594 980.398438 769.027344 978.664062 768.449219 C 972.308594 766.140625 965.953125 767.871094 959.597656 769.027344 C 903.554688 777.117188 844.621094 795.027344 795.511719 826.226562 C 752.179688 853.960938 722.132812 894.40625 701.914062 941.203125 C 681.691406 989.160156 669.558594 1041.160156 659.734375 1092.003906 C 656.269531 1109.335938 653.378906 1126.089844 651.070312 1143.425781 C 648.757812 1160.179688 645.867188 1176.933594 644.714844 1193.691406 C 644.714844 1200.625 645.867188 1206.402344 648.179688 1212.757812 C 651.070312 1219.691406 657.425781 1222.578125 663.78125 1225.46875 C 677.644531 1232.402344 692.089844 1238.179688 707.113281 1241.644531 C 716.355469 1258.402344 723.867188 1275.15625 730.222656 1293.066406 C 727.910156 1297.691406 727.910156 1304.621094 727.335938 1308.667969 C 726.179688 1319.644531 725.601562 1330.621094 725.601562 1341.601562 C 725.601562 1363.554688 726.757812 1385.511719 727.910156 1408.042969 C 729.066406 1430.578125 732.535156 1518.398438 733.113281 1529.375 C 733.691406 1537.464844 733.113281 1549.597656 737.15625 1557.109375 C 744.089844 1568.664062 760.84375 1568.085938 768.355469 1558.84375 C 960.753906 1600.441406 1321.859375 1587.730469 1467.457031 1566.933594 C 1486.523438 1564.042969 1480.167969 1567.507812 1485.367188 1562.308594 C 1488.832031 1558.84375 1492.300781 1552.488281 1492.878906 1547.863281 C 1494.03125 1541.507812 1492.300781 1535.152344 1488.253906 1529.953125 C 1484.210938 1524.175781 1483.632812 1515.511719 1481.898438 1508.578125 C 1478.433594 1492.976562 1476.699219 1423.644531 1474.964844 1415.554688 C 1474.386719 1413.246094 1473.8125 1410.355469 1473.234375 1408.042969 C 1499.808594 1410.355469 1527.542969 1410.355469 1552.964844 1401.6875 C 1567.410156 1396.488281 1580.699219 1388.398438 1591.097656 1377.421875 C 1603.808594 1363.554688 1610.742188 1346.222656 1614.207031 1328.3125 C 1618.832031 1305.199219 1619.984375 1280.933594 1618.832031 1257.246094 C 1617.675781 1229.511719 1613.054688 1200.625 1601.496094 1175.203125 C 1606.699219 1172.3125 1609.585938 1167.691406 1611.898438 1163.070312 Z M 1611.898438 1163.070312 " fill-opacity="1" fill-rule="evenodd"/></g><path fill="#ffffff" d="M 1353.265625 342.574219 C 1312.820312 285.375 1211.710938 279.019531 1148.15625 279.597656 C 1021.625 278.441406 995.050781 423.460938 988.695312 525.148438 C 975.40625 527.460938 962.117188 532.082031 953.449219 542.484375 C 942.472656 555.195312 939.003906 577.726562 948.828125 592.171875 C 955.761719 601.992188 966.160156 604.882812 977.136719 605.460938 C 1014.117188 601.992188 1021.625 634.925781 1039.535156 659.195312 C 1086.335938 722.171875 1166.644531 742.394531 1240.601562 742.96875 C 1266.023438 743.546875 1296.066406 745.28125 1312.242188 721.59375 C 1363.085938 633.195312 1364.242188 516.484375 1367.132812 416.527344 C 1368.289062 391.683594 1367.710938 364.53125 1353.265625 342.574219 Z M 1353.265625 342.574219 " fill-opacity="1" fill-rule="evenodd"/><path fill="#000000" d="M 1130.246094 103.375 C 1134.867188 96.441406 1144.691406 93.554688 1151.625 98.753906 C 1157.402344 95.289062 1164.914062 95.867188 1169.535156 100.488281 C 1175.890625 97.019531 1183.402344 98.175781 1188.601562 103.375 C 1196.691406 99.332031 1207.089844 102.222656 1211.132812 110.308594 C 1219.222656 109.152344 1226.734375 114.355469 1228.46875 122.441406 C 1229.046875 123.019531 1229.046875 123.019531 1229.621094 123.597656 C 1234.246094 123.597656 1238.867188 125.910156 1241.757812 129.953125 C 1242.910156 132.265625 1243.488281 134.578125 1243.488281 137.464844 C 1246.378906 139.199219 1248.6875 141.507812 1249.84375 144.976562 C 1251 147.863281 1250.421875 151.332031 1249.265625 153.644531 C 1253.3125 157.6875 1254.46875 164.621094 1251.578125 169.820312 C 1252.734375 171.554688 1253.3125 174.441406 1253.3125 176.753906 C 1253.3125 180.21875 1251.578125 183.109375 1249.265625 185.996094 C 1252.15625 191.199219 1251 198.132812 1246.378906 201.597656 C 1243.488281 210.84375 1237.132812 217.199219 1226.734375 221.242188 C 1221.535156 222.976562 1215.757812 224.707031 1210.554688 225.863281 C 1233.089844 228.753906 1255.042969 233.953125 1275.84375 242.042969 C 1277 242.621094 1278.15625 242.042969 1278.734375 242.042969 L 1279.886719 242.621094 C 1285.667969 246.085938 1291.445312 248.976562 1296.644531 253.019531 C 1296.644531 252.441406 1296.644531 251.863281 1296.644531 251.285156 C 1296.644531 246.085938 1297.222656 241.464844 1298.378906 236.265625 C 1296.644531 233.953125 1295.488281 231.0625 1294.332031 228.175781 C 1292.597656 221.242188 1296.066406 211.421875 1301.84375 209.109375 C 1304.15625 203.332031 1308.777344 198.710938 1314.554688 197.554688 C 1315.132812 196.976562 1315.710938 196.976562 1316.289062 196.398438 C 1317.445312 195.820312 1319.175781 195.242188 1320.332031 194.664062 C 1320.910156 191.199219 1322.644531 188.308594 1325.53125 186.574219 C 1329.578125 183.6875 1334.777344 183.109375 1338.820312 184.84375 C 1339.398438 184.84375 1340.554688 184.265625 1341.132812 184.265625 C 1348.066406 178.488281 1359.042969 178.488281 1364.820312 185.996094 C 1368.863281 184.265625 1374.066406 184.265625 1378.109375 186.574219 C 1381.574219 188.886719 1383.886719 191.777344 1384.464844 195.820312 C 1390.820312 195.820312 1397.175781 200.441406 1398.910156 206.796875 C 1404.6875 207.375 1409.886719 211.996094 1411.042969 218.351562 C 1415.085938 218.929688 1418.554688 220.664062 1420.863281 224.132812 C 1422.019531 225.863281 1422.597656 227.597656 1422.597656 229.332031 C 1424.332031 230.488281 1426.0625 231.640625 1427.796875 233.375 C 1430.109375 236.84375 1430.6875 240.308594 1429.53125 243.773438 L 1430.109375 244.929688 C 1430.6875 246.085938 1431.265625 247.820312 1431.839844 248.976562 C 1434.152344 251.863281 1434.730469 255.332031 1434.730469 258.796875 C 1435.308594 260.53125 1435.308594 261.6875 1435.886719 263.417969 C 1437.042969 269.195312 1437.621094 275.550781 1437.042969 281.90625 C 1436.464844 284.796875 1435.886719 287.6875 1434.730469 290.574219 C 1434.730469 291.152344 1434.730469 291.730469 1434.152344 292.308594 C 1434.730469 292.886719 1434.152344 295.195312 1432.996094 297.507812 C 1430.6875 300.398438 1428.953125 302.707031 1426.640625 305.597656 C 1424.910156 308.484375 1422.597656 311.375 1420.285156 313.6875 C 1418.554688 315.417969 1416.820312 317.152344 1414.507812 318.308594 C 1410.464844 321.773438 1405.84375 324.085938 1401.21875 325.820312 C 1400.0625 325.820312 1399.488281 325.242188 1398.332031 325.242188 C 1392.554688 328.128906 1383.886719 328.707031 1378.6875 328.707031 C 1372.910156 328.707031 1367.132812 326.972656 1363.085938 324.664062 C 1363.664062 325.820312 1364.242188 326.972656 1364.820312 327.550781 C 1364.820312 327.550781 1364.820312 327.550781 1364.242188 327.550781 C 1363.085938 325.820312 1361.933594 324.664062 1360.777344 323.507812 C 1359.042969 321.773438 1356.152344 321.773438 1355 324.085938 C 1354.421875 325.242188 1354.421875 326.398438 1355 327.550781 C 1355 327.550781 1355.578125 328.128906 1355.578125 328.128906 C 1357.308594 329.285156 1359.042969 332.753906 1360.199219 336.21875 C 1361.355469 337.953125 1362.507812 340.261719 1363.085938 341.996094 C 1363.664062 342.574219 1364.820312 343.730469 1365.398438 343.730469 C 1365.398438 345.464844 1365.976562 346.617188 1367.132812 347.773438 C 1367.710938 347.195312 1367.710938 346.617188 1368.289062 346.039062 C 1373.488281 339.109375 1383.886719 335.640625 1391.398438 339.109375 C 1393.132812 339.109375 1394.285156 338.53125 1396.019531 338.53125 C 1401.21875 337.953125 1406.417969 338.53125 1411.621094 339.683594 C 1413.351562 340.839844 1414.507812 341.417969 1416.242188 343.152344 C 1417.398438 344.308594 1418.554688 345.464844 1419.707031 346.617188 C 1420.285156 347.195312 1421.441406 347.773438 1422.019531 348.351562 C 1424.910156 350.085938 1427.21875 352.972656 1429.53125 356.441406 C 1431.265625 358.75 1432.417969 361.0625 1433.574219 363.375 C 1438.773438 372.617188 1445.128906 383.597656 1440.507812 392.839844 C 1441.085938 393.996094 1441.664062 395.152344 1441.664062 396.308594 C 1442.242188 399.773438 1441.085938 402.664062 1439.351562 405.550781 C 1439.351562 407.285156 1439.929688 409.597656 1439.929688 410.75 C 1440.507812 419.996094 1438.195312 432.707031 1430.109375 436.171875 C 1430.109375 436.171875 1430.109375 436.75 1429.53125 436.75 C 1428.953125 437.90625 1427.796875 438.484375 1426.640625 439.0625 C 1426.0625 439.0625 1426.0625 439.640625 1425.484375 439.640625 C 1425.484375 439.640625 1424.910156 439.640625 1424.910156 440.21875 L 1425.484375 439.640625 C 1420.863281 441.375 1416.820312 441.949219 1412.199219 441.375 C 1409.308594 442.527344 1406.417969 443.105469 1404.109375 443.683594 C 1396.597656 445.417969 1386.777344 447.152344 1379.84375 443.683594 C 1377.53125 442.527344 1375.796875 441.375 1374.644531 440.21875 C 1374.644531 445.996094 1374.644531 451.773438 1375.21875 456.972656 C 1375.796875 471.417969 1375.796875 485.863281 1375.796875 499.726562 C 1375.796875 515.90625 1375.21875 532.082031 1374.640625 548.261719 C 1374.066406 556.351562 1373.488281 564.4375 1372.910156 572.527344 C 1372.332031 580.617188 1371.175781 588.128906 1370.597656 596.214844 C 1368.289062 612.394531 1364.242188 628.570312 1359.621094 644.171875 C 1357.308594 651.105469 1355.578125 657.460938 1352.6875 664.394531 C 1351.53125 667.28125 1350.375 670.75 1349.222656 673.636719 C 1342.867188 689.238281 1334.777344 704.835938 1323.800781 717.546875 C 1318.019531 724.480469 1311.089844 731.414062 1303.578125 736.613281 C 1297.800781 741.238281 1291.445312 745.28125 1283.933594 748.171875 C 1268.910156 754.527344 1252.15625 756.257812 1235.402344 756.257812 C 1229.046875 756.257812 1222.113281 755.105469 1215.757812 753.949219 C 1211.132812 753.371094 1205.933594 752.214844 1201.3125 751.058594 C 1197.269531 749.902344 1192.644531 748.75 1188.601562 747.59375 C 1183.402344 746.4375 1178.777344 744.125 1174.15625 741.816406 L 1166.066406 738.925781 C 1162.601562 737.769531 1159.136719 736.039062 1156.246094 734.304688 L 1147.578125 730.257812 C 1144.113281 728.527344 1140.070312 726.792969 1136.601562 724.480469 C 1136.023438 724.480469 1136.023438 723.902344 1135.445312 723.328125 C 1134.289062 722.75 1133.714844 722.171875 1132.558594 721.59375 C 1132.558594 721.59375 1132.558594 721.015625 1132.558594 720.4375 C 1132.558594 719.859375 1132.558594 719.859375 1133.136719 719.28125 C 1133.714844 719.28125 1133.714844 719.28125 1134.289062 719.28125 C 1133.714844 718.703125 1133.136719 718.703125 1132.558594 718.125 C 1131.980469 717.546875 1131.980469 716.972656 1132.558594 716.394531 C 1132.558594 716.394531 1133.136719 716.394531 1133.136719 716.394531 C 1133.136719 716.394531 1133.136719 715.816406 1133.136719 715.816406 C 1132.558594 715.238281 1132.558594 714.660156 1133.136719 714.660156 C 1133.714844 714.082031 1136.023438 715.238281 1136.601562 715.816406 C 1137.179688 716.394531 1138.335938 716.394531 1138.914062 716.972656 C 1138.914062 716.972656 1138.914062 716.972656 1139.492188 716.394531 C 1138.335938 715.816406 1137.179688 715.238281 1136.023438 714.660156 C 1135.445312 714.082031 1134.289062 713.503906 1135.445312 712.925781 C 1136.023438 712.347656 1138.335938 713.503906 1138.914062 714.082031 C 1138.914062 714.082031 1138.914062 714.082031 1139.492188 714.082031 C 1138.914062 714.082031 1138.914062 713.503906 1138.335938 713.503906 C 1137.179688 712.925781 1137.757812 711.191406 1138.914062 711.769531 L 1139.492188 711.769531 C 1140.070312 711.769531 1141.222656 712.347656 1141.800781 712.925781 C 1145.847656 715.238281 1149.3125 717.546875 1153.933594 719.28125 C 1156.824219 720.4375 1159.710938 722.171875 1162.601562 723.328125 C 1165.492188 724.480469 1168.378906 725.636719 1171.269531 726.792969 C 1178.777344 729.683594 1186.289062 732.570312 1193.222656 734.882812 C 1203.625 737.769531 1214.601562 740.082031 1225.578125 741.238281 C 1226.734375 741.238281 1228.46875 741.238281 1229.621094 741.238281 C 1232.511719 741.238281 1235.976562 741.238281 1238.867188 741.238281 C 1244.644531 740.660156 1251 740.082031 1256.777344 739.503906 C 1259.089844 738.925781 1260.820312 738.925781 1263.132812 738.347656 C 1264.289062 738.347656 1265.445312 737.769531 1266.023438 737.769531 C 1266.601562 737.769531 1266.601562 737.769531 1267.175781 737.769531 C 1269.488281 737.191406 1272.378906 736.039062 1274.6875 735.460938 C 1276.421875 734.882812 1277.578125 734.304688 1279.3125 733.148438 C 1284.511719 730.835938 1289.710938 727.371094 1294.332031 723.902344 L 1312.242188 705.992188 L 1317.445312 698.480469 C 1324.375 688.082031 1330.15625 677.105469 1334.777344 665.550781 L 1342.289062 644.171875 C 1342.867188 641.859375 1344.019531 638.972656 1344.597656 636.660156 C 1345.753906 630.882812 1347.488281 625.105469 1348.644531 619.328125 C 1349.222656 617.015625 1349.796875 615.28125 1349.796875 612.972656 C 1352.6875 599.683594 1353.84375 586.394531 1355 573.105469 C 1357.308594 548.839844 1357.886719 524.574219 1357.886719 500.304688 C 1357.886719 485.863281 1357.886719 471.417969 1357.308594 456.972656 C 1357.308594 448.304688 1356.730469 440.21875 1356.730469 431.550781 C 1356.730469 422.882812 1356.152344 413.640625 1356.152344 404.972656 C 1356.152344 404.972656 1356.152344 404.394531 1356.152344 404.394531 C 1356.152344 403.242188 1356.152344 402.085938 1356.152344 401.507812 C 1356.152344 400.929688 1356.152344 400.351562 1356.730469 400.351562 C 1356.730469 393.996094 1356.730469 387.640625 1356.730469 381.285156 C 1356.730469 380.707031 1356.730469 380.707031 1357.308594 380.707031 L 1357.308594 378.972656 C 1356.152344 374.351562 1355 370.308594 1352.6875 366.261719 C 1353.265625 362.21875 1352.109375 360.484375 1351.53125 359.328125 C 1350.375 357.019531 1349.222656 355.285156 1347.488281 353.550781 C 1346.332031 351.242188 1344.597656 349.507812 1342.867188 347.773438 C 1342.289062 347.195312 1341.132812 346.617188 1340.554688 346.039062 C 1339.976562 345.464844 1338.820312 344.886719 1338.242188 344.308594 C 1336.511719 343.152344 1335.355469 342.574219 1333.621094 341.417969 C 1333.042969 340.839844 1333.042969 339.683594 1334.199219 339.683594 C 1334.199219 339.683594 1334.199219 339.683594 1333.621094 339.109375 C 1331.886719 337.375 1330.15625 335.640625 1327.84375 334.484375 C 1327.265625 334.484375 1327.265625 334.484375 1326.6875 334.484375 C 1325.53125 333.328125 1324.375 332.175781 1323.222656 331.597656 C 1320.332031 329.863281 1318.019531 328.128906 1315.132812 326.972656 C 1310.511719 324.664062 1305.886719 322.929688 1301.265625 321.195312 C 1300.109375 320.617188 1298.953125 320.617188 1298.378906 320.042969 C 1296.644531 320.042969 1295.488281 320.042969 1293.753906 320.042969 C 1238.867188 317.730469 1183.402344 318.886719 1127.9375 322.929688 C 1114.648438 324.085938 1100.78125 325.820312 1087.492188 326.972656 C 1075.359375 328.128906 1061.492188 328.128906 1050.515625 333.90625 C 1049.9375 333.90625 1049.359375 334.484375 1049.359375 334.484375 C 1049.9375 340.261719 1052.246094 345.464844 1053.980469 350.664062 C 1056.871094 358.75 1059.757812 366.839844 1059.179688 375.507812 C 1059.179688 381.285156 1057.449219 387.0625 1055.714844 392.839844 C 1054.558594 400.929688 1052.246094 408.441406 1049.359375 416.527344 C 1036.070312 454.085938 1029.136719 492.796875 1029.714844 532.660156 C 1029.714844 533.816406 1029.714844 534.394531 1029.136719 535.550781 C 1029.136719 537.285156 1029.714844 539.015625 1029.714844 540.75 C 1030.871094 547.683594 1022.203125 550.574219 1018.738281 546.527344 C 1018.738281 546.527344 1018.160156 547.105469 1018.160156 547.105469 C 1017.582031 547.105469 1015.847656 545.949219 1015.847656 545.371094 C 1015.269531 544.21875 1014.691406 543.640625 1014.117188 543.0625 C 1014.691406 543.640625 1014.691406 544.21875 1015.269531 545.371094 C 1015.847656 546.527344 1013.539062 547.105469 1012.960938 545.949219 C 1012.382812 544.792969 1011.804688 544.21875 1011.226562 543.640625 C 1010.648438 543.640625 1010.648438 544.21875 1010.070312 543.640625 C 1008.335938 540.171875 1006.027344 537.863281 1003.136719 534.972656 C 999.09375 531.507812 995.050781 529.773438 989.847656 528.617188 C 985.804688 528.039062 982.339844 528.039062 978.292969 528.617188 C 973.671875 529.195312 969.628906 530.351562 965.582031 532.082031 C 962.117188 534.394531 959.226562 536.707031 955.761719 538.4375 C 955.183594 539.015625 954.027344 540.171875 953.449219 541.328125 C 951.136719 544.21875 949.40625 547.105469 947.671875 550.574219 C 947.671875 550.574219 947.671875 551.148438 947.671875 551.148438 C 946.515625 554.039062 945.9375 556.929688 945.9375 559.816406 C 945.9375 563.285156 945.9375 567.328125 945.9375 570.792969 C 946.515625 575.417969 947.671875 580.039062 949.40625 584.660156 C 950.5625 587.550781 951.714844 589.859375 953.449219 591.59375 C 954.605469 593.328125 955.761719 595.0625 956.917969 596.214844 C 959.226562 597.949219 962.117188 599.105469 965.003906 600.261719 C 965.582031 600.261719 966.738281 600.839844 967.316406 600.839844 C 971.359375 602.570312 975.40625 603.148438 979.449219 603.148438 C 984.648438 603.726562 989.847656 603.148438 994.472656 601.992188 C 997.359375 601.417969 1000.25 600.839844 1003.136719 599.105469 C 1006.027344 597.949219 1008.335938 596.214844 1010.648438 593.90625 C 1010.648438 593.90625 1011.226562 593.90625 1011.804688 593.90625 C 1012.382812 593.328125 1012.960938 593.328125 1013.539062 592.75 C 1013.539062 592.75 1014.117188 592.75 1014.117188 592.75 C 1015.269531 592.171875 1017.582031 593.90625 1016.425781 595.636719 C 1017.003906 596.214844 1017.582031 596.214844 1018.160156 596.792969 C 1020.472656 596.792969 1024.515625 600.839844 1023.9375 601.417969 C 1022.78125 602.570312 1021.625 603.148438 1020.472656 604.304688 C 1021.625 604.882812 1023.359375 606.617188 1022.203125 607.195312 C 1021.046875 608.347656 1019.894531 609.503906 1018.160156 610.082031 C 1017.003906 610.660156 1016.425781 611.816406 1015.269531 612.394531 C 1014.117188 612.972656 1012.960938 613.550781 1011.804688 614.128906 C 1014.117188 618.171875 1015.847656 622.214844 1017.582031 626.261719 C 1018.738281 629.148438 1020.472656 632.039062 1021.625 634.925781 C 1023.9375 638.972656 1026.25 643.015625 1029.136719 646.484375 C 1031.449219 650.527344 1034.335938 653.992188 1037.804688 657.460938 C 1041.847656 662.082031 1045.890625 666.125 1050.515625 670.171875 C 1052.246094 671.328125 1053.980469 672.480469 1056.292969 673.636719 C 1060.914062 677.105469 1066.113281 680.570312 1071.890625 682.882812 C 1072.46875 683.460938 1073.046875 684.039062 1072.46875 684.617188 C 1074.203125 685.769531 1075.9375 686.925781 1077.667969 687.503906 C 1078.246094 688.082031 1079.980469 688.660156 1078.824219 689.816406 C 1078.246094 690.394531 1075.9375 689.238281 1074.78125 688.660156 C 1074.78125 688.660156 1075.359375 688.660156 1075.359375 689.238281 C 1075.9375 689.238281 1078.246094 690.394531 1076.515625 691.546875 C 1075.9375 691.546875 1075.359375 691.546875 1074.203125 690.972656 C 1073.625 690.972656 1073.046875 690.394531 1071.890625 690.394531 C 1071.890625 690.394531 1071.890625 690.972656 1071.3125 690.972656 C 1071.3125 690.972656 1070.738281 690.972656 1070.738281 690.972656 C 1072.46875 691.546875 1073.625 692.703125 1075.359375 693.28125 C 1075.9375 693.28125 1077.667969 694.4375 1076.515625 695.59375 C 1075.9375 695.59375 1075.359375 695.59375 1074.78125 695.015625 C 1073.625 694.4375 1072.46875 693.859375 1071.3125 693.28125 C 1071.3125 693.28125 1070.738281 693.28125 1070.738281 692.703125 C 1070.738281 692.703125 1070.160156 692.703125 1070.160156 692.703125 C 1071.3125 693.28125 1072.46875 693.859375 1073.625 694.4375 C 1074.203125 695.015625 1075.359375 695.59375 1074.78125 696.171875 C 1074.203125 696.75 1071.890625 695.59375 1070.738281 695.015625 C 1070.160156 695.59375 1067.847656 694.4375 1067.269531 693.859375 C 1061.492188 690.394531 1055.136719 687.503906 1049.9375 683.460938 C 1046.46875 681.148438 1043.003906 678.835938 1040.113281 676.527344 C 1033.757812 671.90625 1027.980469 666.125 1022.78125 659.769531 C 1019.316406 655.726562 1017.003906 653.414062 1013.539062 648.214844 C 1007.761719 640.128906 1003.714844 632.039062 999.671875 623.371094 C 999.671875 623.371094 999.671875 622.792969 999.671875 622.792969 C 999.09375 620.484375 997.9375 618.75 997.359375 616.4375 C 995.050781 616.4375 993.316406 617.015625 991.003906 617.015625 C 985.804688 617.015625 981.183594 617.015625 976.558594 615.859375 C 970.78125 615.28125 965.582031 613.550781 960.382812 611.238281 C 957.492188 609.503906 954.605469 608.351562 951.714844 606.617188 C 949.40625 605.460938 947.09375 603.726562 944.78125 601.996094 C 935.539062 594.484375 930.339844 583.503906 929.183594 571.949219 C 928.027344 566.75 928.027344 561.550781 928.605469 556.351562 C 929.183594 552.882812 929.761719 548.839844 930.917969 545.371094 C 933.226562 537.285156 937.273438 530.351562 943.628906 524.574219 C 944.78125 523.417969 945.9375 522.261719 947.09375 521.683594 C 950.5625 518.796875 954.027344 516.484375 958.070312 515.328125 C 958.648438 514.75 959.804688 514.75 960.382812 514.171875 L 959.226562 511.863281 C 958.648438 511.863281 957.492188 511.863281 957.492188 511.285156 C 956.917969 510.128906 956.917969 508.972656 956.339844 507.816406 C 956.339844 507.816406 955.761719 507.816406 955.761719 507.816406 L 955.761719 508.972656 C 955.761719 509.550781 955.183594 511.285156 954.605469 510.128906 C 954.027344 508.972656 954.027344 507.816406 953.449219 506.660156 C 952.871094 506.660156 952.871094 506.082031 952.871094 506.082031 C 952.871094 506.082031 952.871094 506.082031 952.871094 505.507812 L 952.871094 506.082031 C 952.871094 506.082031 952.292969 507.816406 952.292969 507.816406 C 949.984375 502.039062 948.25 496.261719 947.09375 489.90625 C 945.9375 486.441406 945.359375 482.972656 944.78125 480.085938 C 944.207031 477.195312 943.628906 473.730469 943.050781 470.839844 C 943.050781 470.839844 943.050781 470.261719 943.050781 470.261719 C 943.050781 469.683594 943.050781 469.683594 943.050781 469.105469 C 942.472656 465.640625 941.894531 462.171875 941.894531 458.707031 C 941.316406 451.195312 940.738281 444.261719 941.316406 436.75 C 941.316406 436.75 940.738281 436.75 940.738281 436.75 C 937.851562 437.90625 934.382812 439.0625 930.917969 440.21875 C 925.140625 448.882812 915.894531 454.664062 904.339844 455.238281 C 900.292969 455.238281 896.828125 455.238281 892.785156 454.085938 C 892.207031 454.085938 892.207031 454.085938 891.628906 454.085938 C 888.738281 454.664062 886.429688 453.507812 883.539062 452.929688 C 878.917969 452.351562 875.449219 451.773438 872.5625 449.460938 C 871.40625 449.460938 870.828125 449.460938 870.25 448.882812 C 862.738281 450.617188 854.074219 446.574219 851.761719 437.90625 C 847.140625 435.019531 843.671875 430.972656 840.785156 426.351562 C 836.164062 419.996094 832.117188 412.484375 829.808594 404.972656 C 828.652344 402.085938 828.074219 399.773438 828.074219 396.886719 C 826.917969 388.796875 826.917969 380.707031 829.808594 373.773438 C 829.808594 369.730469 830.386719 366.261719 832.117188 362.21875 C 833.851562 357.597656 837.316406 352.972656 840.785156 350.085938 C 840.785156 345.464844 842.519531 340.839844 845.40625 337.375 C 850.605469 330.441406 857.539062 326.972656 865.628906 326.398438 C 869.671875 315.996094 881.804688 313.6875 892.207031 317.152344 C 896.828125 312.53125 903.183594 310.796875 909.539062 311.375 C 914.738281 311.953125 919.359375 314.839844 923.40625 318.308594 C 924.5625 318.308594 925.140625 318.886719 926.292969 319.464844 C 929.761719 317.730469 933.804688 317.730469 937.273438 318.308594 C 943.628906 320.042969 947.671875 324.664062 950.5625 329.863281 C 951.714844 330.441406 952.292969 331.019531 953.449219 331.597656 C 954.605469 332.175781 955.183594 332.753906 955.761719 333.328125 C 956.917969 333.90625 958.070312 335.0625 958.648438 336.21875 C 960.382812 337.953125 961.539062 339.683594 963.273438 341.417969 C 964.425781 339.109375 965.003906 336.796875 966.160156 334.484375 C 967.894531 335.0625 969.628906 334.484375 970.78125 332.175781 C 975.984375 317.730469 985.804688 291.730469 995.046875 279.597656 C 984.070312 287.109375 971.359375 290.574219 958.070312 290.574219 C 957.492188 290.574219 956.917969 290.574219 956.339844 290.574219 C 949.40625 291.730469 942.472656 291.730469 935.539062 290.574219 C 930.917969 288.839844 926.871094 287.109375 922.828125 284.796875 C 921.671875 284.21875 921.09375 283.640625 919.9375 283.0625 C 919.359375 282.484375 919.359375 282.484375 918.785156 281.910156 C 918.207031 281.910156 917.050781 281.910156 915.894531 281.910156 C 912.429688 280.753906 908.960938 278.441406 906.648438 275.554688 C 906.074219 274.976562 906.074219 274.398438 905.496094 273.820312 C 903.183594 271.507812 901.449219 269.199219 899.71875 266.308594 C 897.984375 262.839844 896.828125 258.796875 896.828125 255.332031 C 896.25 251.285156 896.25 247.820312 897.40625 243.773438 C 897.40625 243.199219 897.984375 243.199219 897.984375 242.621094 C 897.984375 242.621094 897.984375 242.042969 897.984375 242.042969 C 898.5625 240.886719 899.140625 239.730469 899.71875 238.574219 C 899.71875 237.417969 900.292969 236.265625 900.871094 235.109375 C 900.871094 234.53125 900.871094 233.953125 900.871094 233.375 C 896.828125 225.863281 898.5625 216.621094 904.339844 210.265625 C 903.761719 206.21875 904.339844 202.175781 906.648438 198.710938 C 908.382812 196.398438 910.695312 194.085938 913.582031 192.929688 C 913.582031 192.929688 914.738281 192.355469 915.316406 192.355469 C 916.472656 191.199219 917.628906 190.621094 918.785156 190.042969 C 918.785156 182.53125 926.871094 178.488281 933.226562 174.441406 C 937.273438 172.132812 939.003906 167.507812 943.628906 165.199219 C 948.25 162.886719 954.027344 162.308594 959.226562 161.730469 C 971.359375 160 984.070312 159.421875 996.203125 160.574219 C 1003.136719 161.152344 1008.335938 164.621094 1010.648438 169.820312 C 1016.425781 170.398438 1021.625 174.441406 1025.671875 179.066406 C 1030.871094 184.265625 1034.914062 190.042969 1036.648438 197.554688 C 1037.804688 198.132812 1038.382812 198.710938 1039.535156 199.285156 C 1039.535156 204.488281 1038.960938 209.109375 1037.226562 213.730469 C 1037.804688 216.621094 1036.648438 219.507812 1035.492188 221.820312 C 1035.492188 224.132812 1035.492188 226.441406 1034.914062 228.753906 C 1037.804688 233.953125 1034.914062 240.886719 1031.449219 246.085938 C 1031.449219 247.242188 1031.449219 247.820312 1031.449219 248.976562 C 1031.449219 248.976562 1032.027344 248.976562 1032.027344 248.398438 C 1049.9375 233.375 1067.847656 235.6875 1089.226562 227.019531 C 1108.867188 223.554688 1128.511719 220.664062 1148.15625 220.085938 C 1148.15625 220.085938 1147.578125 220.085938 1147.578125 220.085938 C 1137.757812 218.351562 1127.933594 214.308594 1119.847656 208.53125 C 1117.535156 207.953125 1115.800781 206.796875 1113.492188 205.066406 C 1111.757812 203.332031 1110.601562 201.597656 1109.445312 199.863281 C 1108.867188 199.285156 1108.867188 199.285156 1108.292969 198.710938 C 1101.9375 196.976562 1097.3125 191.777344 1097.890625 184.84375 C 1093.847656 180.21875 1092.691406 174.441406 1093.847656 168.664062 C 1091.535156 165.199219 1091.535156 160 1093.269531 156.53125 C 1089.804688 152.488281 1089.804688 146.132812 1092.113281 141.507812 C 1089.804688 138.042969 1089.226562 133.421875 1092.113281 129.375 C 1093.269531 127.644531 1095.582031 125.910156 1097.890625 125.332031 C 1098.46875 123.019531 1099.625 120.710938 1101.9375 119.554688 C 1104.246094 120.132812 1104.824219 119.554688 1105.980469 118.976562 C 1106.558594 116.664062 1107.714844 114.355469 1110.023438 112.621094 C 1111.179688 112.042969 1112.335938 111.464844 1113.492188 110.886719 C 1114.648438 108 1116.378906 105.6875 1119.269531 103.953125 C 1122.734375 102.796875 1126.78125 102.222656 1130.246094 103.375 Z M 973.671875 547.683594 C 975.984375 547.683594 978.871094 547.683594 981.183594 547.683594 C 981.761719 547.683594 981.761719 547.683594 982.339844 547.683594 C 983.492188 547.683594 985.226562 548.261719 986.382812 548.839844 C 989.847656 549.996094 992.738281 551.148438 995.625 553.460938 C 998.515625 555.195312 1000.828125 556.929688 1003.136719 559.238281 C 1003.714844 559.816406 1004.871094 560.972656 1005.449219 561.550781 C 1006.605469 562.707031 1007.761719 563.285156 1008.914062 564.4375 C 1010.070312 565.59375 1011.804688 566.75 1012.960938 568.484375 C 1014.691406 570.792969 1016.425781 573.105469 1017.582031 575.996094 C 1018.160156 577.148438 1017.582031 577.148438 1016.425781 577.148438 C 1015.847656 577.148438 1015.269531 576.570312 1014.691406 576.570312 C 1014.691406 576.570312 1014.691406 577.148438 1014.691406 577.148438 C 1015.269531 578.304688 1014.691406 578.882812 1013.539062 578.304688 C 1014.117188 579.460938 1014.691406 580.617188 1015.269531 581.195312 C 1015.847656 582.351562 1015.269531 582.925781 1014.117188 582.351562 C 1013.539062 581.773438 1012.960938 581.773438 1012.382812 581.195312 C 1012.382812 581.773438 1012.960938 582.351562 1012.960938 582.925781 C 1013.539062 584.082031 1012.960938 584.660156 1011.804688 584.082031 C 1011.226562 583.503906 1010.070312 582.925781 1009.492188 582.351562 C 1009.492188 582.351562 1009.492188 582.351562 1008.914062 582.351562 C 1009.492188 582.925781 1008.914062 583.503906 1007.761719 583.503906 C 1006.605469 583.503906 1004.292969 581.195312 1004.292969 580.617188 C 1003.714844 580.039062 1003.136719 579.460938 1002.558594 578.882812 C 1001.980469 579.460938 1001.40625 580.039062 1000.828125 579.460938 C 999.671875 576.570312 997.9375 574.261719 996.203125 572.527344 C 995.050781 570.792969 993.316406 569.0625 991.582031 567.90625 C 990.425781 567.328125 989.847656 566.171875 988.695312 565.59375 C 986.960938 565.015625 985.226562 564.4375 982.914062 563.859375 C 982.339844 563.859375 982.339844 563.859375 981.761719 563.285156 C 981.183594 563.285156 980.027344 562.707031 979.449219 562.707031 C 975.984375 562.128906 972.515625 562.128906 969.050781 562.707031 C 968.472656 562.707031 967.894531 562.128906 967.316406 561.550781 C 966.738281 561.550781 965.582031 561.550781 965.003906 561.550781 C 963.847656 561.550781 963.847656 559.816406 965.003906 559.816406 C 966.160156 559.816406 967.316406 559.238281 968.472656 559.238281 C 968.472656 559.238281 968.472656 559.238281 968.472656 558.660156 C 966.160156 558.660156 963.847656 558.660156 961.539062 558.660156 C 960.382812 558.660156 961.539062 556.929688 962.117188 556.929688 C 962.117188 556.929688 962.695312 556.929688 962.695312 556.929688 C 961.539062 556.929688 960.382812 554.617188 962.117188 554.617188 C 962.695312 554.617188 962.695312 554.617188 963.273438 554.617188 C 963.273438 554.617188 963.273438 554.039062 963.273438 554.039062 C 962.695312 554.039062 962.117188 554.039062 960.960938 554.039062 C 961.539062 554.039062 961.539062 552.304688 962.117188 552.304688 C 962.695312 552.304688 962.695312 552.304688 963.273438 552.304688 C 963.273438 551.726562 963.847656 550.574219 964.425781 550.574219 C 966.738281 549.996094 969.050781 549.996094 971.359375 549.996094 C 973.09375 548.261719 973.09375 547.683594 973.671875 547.683594 Z M 973.671875 547.683594 " fill-opacity="1" fill-rule="evenodd"/><path fill="#000000" d="M 1271.171875 650.589844 C 1261.925781 653.480469 1252.679688 653.480469 1243.4375 650.589844 C 1235.347656 648.28125 1226.683594 642.5 1220.328125 635.570312 C 1215.125 629.214844 1211.082031 621.703125 1211.660156 613.613281 C 1211.660156 612.457031 1212.238281 611.878906 1212.238281 611.300781 C 1212.816406 610.722656 1213.394531 610.144531 1214.550781 610.144531 C 1215.125 610.144531 1216.28125 610.144531 1216.859375 610.144531 C 1217.4375 610.722656 1218.015625 610.722656 1218.59375 611.878906 C 1219.75 613.035156 1220.328125 614.191406 1221.480469 615.347656 C 1228.992188 624.589844 1236.503906 631.523438 1247.480469 634.414062 C 1253.835938 635.570312 1259.613281 634.992188 1265.390625 633.257812 C 1271.171875 630.945312 1276.949219 626.902344 1280.992188 622.28125 C 1282.726562 619.96875 1285.035156 619.390625 1287.347656 618.8125 C 1289.660156 618.8125 1292.546875 619.96875 1294.28125 621.703125 C 1296.015625 623.433594 1297.167969 626.324219 1297.746094 628.636719 C 1297.746094 630.945312 1297.167969 633.257812 1294.859375 635.570312 C 1289.082031 643.078125 1280.414062 648.28125 1271.171875 650.589844 Z M 1271.171875 533.878906 C 1280.414062 539.65625 1294.28125 552.371094 1284.457031 566.234375 C 1272.902344 578.367188 1256.148438 564.503906 1247.480469 558.148438 C 1239.972656 553.523438 1231.304688 566.234375 1238.238281 571.4375 C 1298.324219 615.925781 1322.589844 535.035156 1275.792969 526.945312 C 1270.59375 526.371094 1268.28125 532.148438 1271.171875 533.878906 Z M 1184.503906 509.035156 C 1181.617188 507.304688 1178.148438 506.726562 1174.105469 508.457031 C 1171.214844 509.613281 1166.015625 514.234375 1161.972656 520.589844 C 1159.660156 524.636719 1157.925781 529.257812 1157.925781 534.457031 C 1157.925781 535.613281 1157.351562 536.769531 1156.773438 537.347656 C 1156.195312 537.925781 1155.617188 538.503906 1154.460938 538.503906 C 1153.882812 538.503906 1152.726562 538.503906 1152.148438 538.503906 C 1150.996094 537.925781 1149.839844 537.347656 1149.839844 536.769531 C 1147.527344 529.835938 1148.105469 522.324219 1150.996094 515.390625 C 1155.039062 506.148438 1161.972656 498.058594 1166.59375 495.746094 C 1174.683594 491.703125 1183.925781 491.125 1192.015625 495.746094 C 1198.949219 499.214844 1202.992188 505.570312 1207.039062 511.925781 C 1208.195312 513.082031 1208.769531 514.8125 1209.925781 515.96875 C 1211.660156 518.28125 1212.238281 521.167969 1211.082031 523.480469 C 1210.503906 525.792969 1208.195312 528.101562 1205.882812 529.257812 C 1203.570312 530.414062 1200.683594 530.414062 1198.371094 529.257812 C 1196.636719 528.679688 1194.328125 526.945312 1193.171875 524.058594 C 1192.59375 517.125 1189.128906 511.925781 1184.503906 509.035156 Z M 1335.300781 519.4375 C 1332.992188 520.589844 1331.835938 520.589844 1329.523438 520.015625 C 1327.792969 520.015625 1326.636719 519.4375 1326.058594 518.28125 C 1324.902344 517.125 1324.324219 515.96875 1323.746094 514.8125 C 1323.167969 511.347656 1321.4375 508.457031 1319.125 506.726562 C 1316.8125 504.992188 1313.925781 503.835938 1311.035156 504.414062 C 1307.570312 504.992188 1304.679688 507.304688 1302.371094 509.613281 C 1301.792969 510.191406 1301.214844 511.347656 1300.636719 512.503906 C 1299.480469 514.234375 1298.324219 515.96875 1297.167969 517.125 C 1296.59375 517.703125 1296.015625 517.703125 1294.859375 517.703125 C 1294.28125 517.703125 1294.28125 517.703125 1293.703125 517.703125 C 1290.238281 514.234375 1289.660156 511.925781 1289.660156 509.613281 C 1289.660156 507.304688 1290.8125 504.414062 1292.546875 502.101562 C 1296.59375 496.324219 1303.523438 491.703125 1308.726562 490.546875 C 1315.660156 488.8125 1322.589844 490.546875 1327.792969 494.59375 C 1333.570312 498.636719 1337.613281 504.414062 1338.769531 511.347656 C 1339.347656 513.082031 1338.769531 514.8125 1338.191406 516.546875 C 1337.613281 517.703125 1336.457031 518.859375 1335.300781 519.4375 Z M 1199.527344 448.371094 C 1195.484375 452.414062 1190.859375 452.992188 1185.660156 453.570312 C 1182.773438 454.148438 1181.039062 454.148438 1178.726562 454.726562 C 1172.949219 455.882812 1167.171875 458.191406 1161.972656 461.082031 C 1156.195312 463.96875 1150.417969 467.4375 1146.371094 472.058594 C 1145.214844 473.214844 1144.640625 474.371094 1143.484375 475.527344 C 1142.328125 476.679688 1141.75 477.835938 1140.59375 478.414062 C 1139.4375 479.570312 1138.859375 480.726562 1137.707031 481.882812 C 1137.128906 483.035156 1137.128906 483.035156 1137.128906 483.613281 C 1137.128906 484.191406 1136.550781 484.191406 1136.550781 484.769531 C 1135.972656 485.347656 1135.972656 485.925781 1135.394531 486.503906 C 1134.816406 487.660156 1134.238281 488.238281 1134.238281 488.238281 C 1133.660156 488.238281 1133.082031 488.8125 1132.503906 488.238281 C 1131.929688 488.238281 1131.351562 488.238281 1131.351562 487.660156 C 1129.039062 485.925781 1128.460938 483.035156 1128.460938 480.148438 C 1128.460938 475.527344 1130.195312 470.324219 1131.929688 467.4375 C 1135.394531 459.925781 1140.59375 452.414062 1146.949219 446.636719 C 1153.882812 440.28125 1161.394531 435.660156 1170.636719 432.191406 C 1175.839844 429.882812 1182.195312 428.148438 1188.550781 428.726562 C 1192.59375 428.726562 1197.214844 430.460938 1200.105469 433.347656 C 1202.414062 435.082031 1202.992188 437.96875 1202.992188 440.859375 C 1202.992188 443.171875 1201.839844 446.058594 1199.527344 448.371094 Z M 1343.390625 484.191406 C 1343.390625 484.769531 1342.8125 484.769531 1342.234375 485.347656 C 1341.65625 485.347656 1341.082031 485.347656 1341.082031 485.347656 C 1340.503906 485.347656 1339.925781 485.347656 1339.925781 484.769531 C 1339.347656 484.769531 1339.347656 484.191406 1339.347656 483.613281 C 1336.457031 472.058594 1331.257812 462.816406 1320.28125 457.035156 C 1314.503906 454.148438 1308.726562 452.414062 1302.371094 451.257812 C 1300.636719 451.257812 1298.902344 450.679688 1297.167969 450.679688 C 1291.390625 450.101562 1285.613281 448.949219 1281.570312 444.324219 C 1279.257812 441.4375 1278.101562 437.96875 1278.679688 434.503906 C 1279.257812 431.613281 1280.992188 428.726562 1284.457031 426.992188 C 1292.546875 422.949219 1302.949219 426.992188 1311.035156 430.460938 C 1311.613281 430.460938 1312.191406 431.035156 1312.769531 431.035156 C 1320.859375 434.503906 1328.371094 439.125 1334.148438 445.480469 C 1338.769531 450.679688 1343.390625 458.191406 1345.125 466.28125 C 1347.4375 472.058594 1346.859375 478.992188 1343.390625 484.191406 Z M 1343.390625 484.191406 " fill-opacity="1" fill-rule="evenodd"/><path fill="#000000" d="M 1373.65625 544.996094 C 1365.566406 555.972656 1349.964844 559.441406 1336.101562 558.285156 C 1306.054688 555.398438 1296.234375 520.730469 1295.078125 494.152344 C 1315.300781 499.929688 1293.34375 459.488281 1362.675781 454.863281 C 1386.941406 452.554688 1380.585938 467.574219 1390.988281 478.554688 C 1391.566406 501.085938 1388.097656 525.351562 1373.65625 544.996094 M 1229.210938 518.417969 C 1211.300781 602.773438 1113.660156 582.550781 1103.257812 506.863281 C 1112.503906 499.929688 1110.191406 483.753906 1122.324219 477.398438 C 1140.8125 465.265625 1164.503906 465.84375 1185.878906 466.417969 C 1213.035156 468.152344 1220.546875 479.707031 1234.992188 491.84375 C 1233.835938 499.929688 1231.523438 509.753906 1229.210938 518.417969 M 1412.941406 440.996094 C 1411.789062 440.996094 1411.210938 440.421875 1410.054688 440.421875 C 1409.476562 439.84375 1408.320312 439.84375 1407.164062 439.265625 C 1404.855469 438.6875 1402.542969 438.109375 1399.652344 438.109375 C 1364.988281 430.019531 1284.101562 441.574219 1281.210938 471.042969 C 1269.65625 475.085938 1260.410156 471.621094 1247.125 471.621094 C 1237.300781 431.175781 1068.59375 436.953125 1060.503906 461.21875 C 1052.414062 458.910156 1041.4375 459.488281 1032.195312 458.910156 C 1013.128906 458.332031 994.0625 460.0625 974.996094 464.109375 C 939.75 469.886719 892.375 476.242188 916.640625 520.152344 C 920.683594 524.195312 928.195312 520.730469 928.195312 514.953125 C 920.105469 494.152344 938.59375 491.84375 952.460938 486.0625 C 987.707031 473.351562 1024.105469 471.621094 1060.503906 475.664062 C 1063.394531 479.128906 1067.4375 482.019531 1072.058594 483.175781 C 1096.324219 487.21875 1083.613281 505.128906 1099.214844 508.019531 C 1096.324219 571.574219 1173.167969 605.664062 1217.65625 564.0625 C 1235.566406 546.730469 1239.613281 520.730469 1243.65625 497.621094 C 1245.96875 497.042969 1247.125 495.886719 1248.277344 494.152344 C 1253.480469 488.953125 1256.945312 484.332031 1267.34375 482.597656 C 1277.746094 481.441406 1285.832031 484.332031 1286.988281 484.910156 C 1286.988281 485.484375 1287.566406 486.0625 1288.144531 486.640625 C 1288.722656 487.21875 1289.300781 488.375 1289.878906 488.375 C 1278.902344 551.929688 1328.011719 591.796875 1377.121094 559.441406 C 1398.5 539.21875 1403.121094 508.597656 1404.277344 480.863281 C 1407.164062 479.128906 1408.898438 475.664062 1407.742188 471.621094 C 1406.585938 465.84375 1409.476562 460.640625 1414.675781 458.332031 C 1421.609375 454.285156 1420.453125 442.152344 1412.941406 440.996094 " fill-opacity="1" fill-rule="evenodd"/><g fill="#000000" fill-opacity="1"><g transform="translate(706.709795, 1922.761695)"><g><path d="M 9.492188 0.945312 L 123.796875 12.316406 C 217.214844 21.609375 274.566406 -22.925781 283.179688 -109.507812 C 290.394531 -182.039062 243.621094 -243.832031 151.722656 -252.976562 L 35.898438 -264.496094 L 30.914062 -214.371094 L 54.457031 -212.027344 L 38.0625 -47.21875 L 14.519531 -49.5625 Z M 115.910156 -39.476562 L 132.304688 -204.285156 L 146.734375 -202.847656 C 186.988281 -198.84375 199.882812 -158.828125 195.839844 -118.195312 C 191.117188 -70.726562 170.667969 -34.796875 130.339844 -38.039062 Z M 115.910156 -39.476562 "/></g></g></g><g fill="#000000" fill-opacity="1"><g transform="translate(988.67073, 1949.793007)"><g><path d="M 10.523438 -266.714844 L 10.335938 -216.339844 L 34.378906 -216.253906 L 33.769531 -50.632812 L 9.726562 -50.71875 L 9.539062 0.0351562 L 239.65625 0.882812 L 239.972656 -85.363281 L 173.953125 -85.605469 L 173.824219 -50.113281 L 112.765625 -50.339844 L 112.992188 -112.542969 L 185.5 -112.277344 L 185.6875 -163.03125 L 113.179688 -163.296875 L 113.375 -215.960938 L 174.433594 -215.738281 L 174.308594 -181.773438 L 240.328125 -181.53125 L 240.636719 -265.867188 Z M 10.523438 -266.714844 "/></g></g></g><g fill="#000000" fill-opacity="1"><g transform="translate(1246.781534, 1951.442166)"><g><path d="M 151.402344 -100.371094 C 149.625 -110.9375 143.085938 -127.175781 135.222656 -145.210938 L 94.785156 -227.210938 L 115.300781 -229.175781 L 110.570312 -278.558594 L -29.226562 -265.171875 L -24.496094 -215.789062 L -3.605469 -217.789062 L 117.761719 -11.277344 L 187.660156 -17.96875 L 258.132812 -242.851562 L 276.75 -244.636719 L 272.019531 -294.019531 L 164.132812 -283.6875 L 168.863281 -234.304688 L 188.996094 -236.234375 L 162.355469 -150.109375 C 156.578125 -130.386719 153.042969 -111.261719 153.300781 -100.554688 Z M 151.402344 -100.371094 "/></g></g></g><g fill="#000000" fill-opacity="1"><g transform="translate(703.86166, 2159.522097)"><g><path d="M 103.65625 -95.203125 C 103.65625 -81.597656 99.015625 -71.132812 89.734375 -63.8125 C 80.453125 -56.488281 67.171875 -52.828125 49.890625 -52.828125 L 34.09375 -52.828125 L 34.09375 0 L 18.46875 0 L 18.46875 -134.34375 L 53.296875 -134.34375 C 86.867188 -134.34375 103.65625 -121.296875 103.65625 -95.203125 Z M 34.09375 -66.25 L 48.15625 -66.25 C 62 -66.25 72.015625 -68.484375 78.203125 -72.953125 C 84.390625 -77.429688 87.484375 -84.601562 87.484375 -94.46875 C 87.484375 -103.34375 84.570312 -109.953125 78.75 -114.296875 C 72.925781 -118.648438 63.859375 -120.828125 51.546875 -120.828125 L 34.09375 -120.828125 Z M 34.09375 -66.25 "/></g></g></g><g fill="#000000" fill-opacity="1"><g transform="translate(817.155133, 2159.522097)"><g><path d="M 135.078125 -67.359375 C 135.078125 -45.847656 129.640625 -28.9375 118.765625 -16.625 C 107.890625 -4.3125 92.773438 1.84375 73.421875 1.84375 C 53.628906 1.84375 38.359375 -4.203125 27.609375 -16.296875 C 16.859375 -28.398438 11.484375 -45.476562 11.484375 -67.53125 C 11.484375 -89.40625 16.875 -106.359375 27.65625 -118.390625 C 38.4375 -130.429688 53.753906 -136.453125 73.609375 -136.453125 C 92.898438 -136.453125 107.96875 -130.328125 118.8125 -118.078125 C 129.65625 -105.828125 135.078125 -88.921875 135.078125 -67.359375 Z M 28.03125 -67.359375 C 28.03125 -49.160156 31.90625 -35.359375 39.65625 -25.953125 C 47.40625 -16.554688 58.660156 -11.859375 73.421875 -11.859375 C 88.304688 -11.859375 99.546875 -16.539062 107.140625 -25.90625 C 114.734375 -35.28125 118.53125 -49.097656 118.53125 -67.359375 C 118.53125 -85.429688 114.75 -99.132812 107.1875 -108.46875 C 99.625 -117.8125 88.429688 -122.484375 73.609375 -122.484375 C 58.722656 -122.484375 47.40625 -117.78125 39.65625 -108.375 C 31.90625 -98.976562 28.03125 -85.304688 28.03125 -67.359375 Z M 28.03125 -67.359375 "/></g></g></g><g fill="#000000" fill-opacity="1"><g transform="translate(963.710747, 2159.522097)"><g><path d="M 125.703125 -68.453125 C 125.703125 -46.273438 119.679688 -29.320312 107.640625 -17.59375 C 95.609375 -5.863281 78.289062 0 55.6875 0 L 18.46875 0 L 18.46875 -134.34375 L 59.640625 -134.34375 C 80.523438 -134.34375 96.753906 -128.550781 108.328125 -116.96875 C 119.910156 -105.394531 125.703125 -89.222656 125.703125 -68.453125 Z M 109.15625 -67.90625 C 109.15625 -85.425781 104.757812 -98.625 95.96875 -107.5 C 87.1875 -116.382812 74.125 -120.828125 56.78125 -120.828125 L 34.09375 -120.828125 L 34.09375 -13.5 L 53.109375 -13.5 C 71.734375 -13.5 85.726562 -18.078125 95.09375 -27.234375 C 104.46875 -36.398438 109.15625 -49.957031 109.15625 -67.90625 Z M 109.15625 -67.90625 "/></g></g></g><g fill="#000000" fill-opacity="1"><g transform="translate(1100.894155, 2159.522097)"><g><path d="M 75.984375 -122.296875 C 61.222656 -122.296875 49.566406 -117.378906 41.015625 -107.546875 C 32.472656 -97.722656 28.203125 -84.265625 28.203125 -67.171875 C 28.203125 -49.585938 32.320312 -36 40.5625 -26.40625 C 48.800781 -16.820312 60.550781 -12.03125 75.8125 -12.03125 C 85.175781 -12.03125 95.863281 -13.71875 107.875 -17.09375 L 107.875 -3.40625 C 98.5625 0.09375 87.078125 1.84375 73.421875 1.84375 C 53.628906 1.84375 38.359375 -4.160156 27.609375 -16.171875 C 16.859375 -28.179688 11.484375 -45.242188 11.484375 -67.359375 C 11.484375 -81.203125 14.070312 -93.328125 19.25 -103.734375 C 24.425781 -114.148438 31.898438 -122.175781 41.671875 -127.8125 C 51.441406 -133.445312 62.941406 -136.265625 76.171875 -136.265625 C 90.265625 -136.265625 102.578125 -133.691406 113.109375 -128.546875 L 106.5 -115.140625 C 96.332031 -119.910156 86.160156 -122.296875 75.984375 -122.296875 Z M 75.984375 -122.296875 "/></g></g></g><g fill="#000000" fill-opacity="1"><g transform="translate(1219.608761, 2159.522097)"><g><path d="M 102.921875 0 L 86.1875 -42.734375 L 32.34375 -42.734375 L 15.8125 0 L 0 0 L 53.109375 -134.890625 L 66.25 -134.890625 L 119.09375 0 Z M 81.328125 -56.78125 L 65.703125 -98.40625 C 63.679688 -103.675781 61.597656 -110.140625 59.453125 -117.796875 C 58.109375 -111.921875 56.175781 -105.457031 53.65625 -98.40625 L 37.859375 -56.78125 Z M 81.328125 -56.78125 "/></g></g></g><g fill="#000000" fill-opacity="1"><g transform="translate(1338.690901, 2159.522097)"><g><path d="M 94.28125 -35.75 C 94.28125 -23.925781 89.988281 -14.703125 81.40625 -8.078125 C 72.832031 -1.460938 61.195312 1.84375 46.5 1.84375 C 30.570312 1.84375 18.316406 -0.207031 9.734375 -4.3125 L 9.734375 -19.390625 C 15.253906 -17.054688 21.257812 -15.21875 27.75 -13.875 C 34.238281 -12.53125 40.671875 -11.859375 47.046875 -11.859375 C 57.460938 -11.859375 65.300781 -13.832031 70.5625 -17.78125 C 75.832031 -21.726562 78.46875 -27.226562 78.46875 -34.28125 C 78.46875 -38.9375 77.535156 -42.75 75.671875 -45.71875 C 73.804688 -48.6875 70.679688 -51.425781 66.296875 -53.9375 C 61.921875 -56.445312 55.257812 -59.296875 46.3125 -62.484375 C 33.8125 -66.953125 24.878906 -72.25 19.515625 -78.375 C 14.160156 -84.5 11.484375 -92.492188 11.484375 -102.359375 C 11.484375 -112.710938 15.375 -120.953125 23.15625 -127.078125 C 30.9375 -133.203125 41.226562 -136.265625 54.03125 -136.265625 C 67.382812 -136.265625 79.664062 -133.816406 90.875 -128.921875 L 86 -115.3125 C 74.914062 -119.96875 64.132812 -122.296875 53.65625 -122.296875 C 45.394531 -122.296875 38.9375 -120.519531 34.28125 -116.96875 C 29.625 -113.414062 27.296875 -108.488281 27.296875 -102.1875 C 27.296875 -97.53125 28.148438 -93.710938 29.859375 -90.734375 C 31.578125 -87.765625 34.472656 -85.039062 38.546875 -82.5625 C 42.617188 -80.082031 48.851562 -77.34375 57.25 -74.34375 C 71.332031 -69.3125 81.023438 -63.914062 86.328125 -58.15625 C 91.628906 -52.40625 94.28125 -44.9375 94.28125 -35.75 Z M 94.28125 -35.75 "/></g></g></g><g fill="#000000" fill-opacity="1"><g transform="translate(1441.968931, 2159.522097)"><g><path d="M 59.8125 0 L 44.203125 0 L 44.203125 -120.46875 L 1.65625 -120.46875 L 1.65625 -134.34375 L 102.359375 -134.34375 L 102.359375 -120.46875 L 59.8125 -120.46875 Z M 59.8125 0 "/></g></g></g></svg>