<?xml version="1.0" encoding="UTF-8"?>
<svg xmlns="http://www.w3.org/2000/svg" xmlns:xlink="http://www.w3.org/1999/xlink" viewBox="0 0 150 150" width="150px" height="150px">
<g id="surface19733650">
<path style="fill-rule:evenodd;fill:rgb(0%,0%,0%);fill-opacity:1;stroke-width:1;stroke-linecap:butt;stroke-linejoin:round;stroke:rgb(0%,0%,0%);stroke-opacity:1;stroke-miterlimit:10;" d="M 134.157799 137.600538 L 85.999999 151.357979 L 37.842198 137.600538 L 27.518485 20.642018 L 144.481512 20.642018 C 141.038772 59.620681 137.600538 98.617369 134.157799 137.600538 Z M 136.96967 27.518485 L 35.030327 27.518485 L 44.277057 132.278712 L 85.999999 144.211139 L 127.72294 132.278712 Z M 57.795669 96.319205 L 71.553109 96.319205 L 71.891074 104.921548 L 85.999999 109.729668 L 100.108923 104.921548 L 101.131831 89.438232 L 70.868166 89.438232 L 70.169705 75.680792 L 101.830292 75.680792 L 102.848695 61.918845 L 55.389356 61.918845 L 54.352929 48.161405 L 117.309103 48.161405 L 115.587733 75.680792 L 113.172407 115.240755 L 85.999999 124.190076 L 58.82759 115.240755 Z M 57.795669 96.319205 " transform="matrix(0.86686,0,0,0.86686,0.45,0.45)"/>
<path style=" stroke:none;fill-rule:evenodd;fill:rgb(0%,0%,0%);fill-opacity:1;" d="M 116.746094 119.730469 L 75 131.65625 L 33.253906 119.730469 L 24.304688 18.34375 L 125.695312 18.34375 C 122.710938 52.132812 119.730469 85.9375 116.746094 119.730469 Z M 119.183594 24.304688 L 30.816406 24.304688 L 38.832031 115.117188 L 75 125.460938 L 111.167969 115.117188 Z M 50.550781 83.945312 L 62.476562 83.945312 L 62.769531 91.402344 L 75 95.570312 L 87.230469 91.402344 L 88.117188 77.980469 L 61.882812 77.980469 L 61.277344 66.054688 L 88.722656 66.054688 L 89.605469 54.125 L 48.464844 54.125 L 47.566406 42.199219 L 102.140625 42.199219 L 100.648438 66.054688 L 98.554688 100.347656 L 75 108.105469 L 51.445312 100.347656 Z M 50.550781 83.945312 "/>
</g>
</svg>
