<?xml version="1.0" encoding="UTF-8"?>
<svg xmlns="http://www.w3.org/2000/svg" xmlns:xlink="http://www.w3.org/1999/xlink" viewBox="0 0 150 150" width="150px" height="150px">
<g id="surface19721211">
<rect x="0" y="0" width="150" height="150" style="fill:rgb(100%,100%,100%);fill-opacity:1;stroke:none;"/>
<path style=" stroke:none;fill-rule:nonzero;fill:rgb(0%,0%,0%);fill-opacity:1;" d="M 15.84375 6 C 14.296875 6.28125 13.230469 7.722656 13.40625 9.28125 L 24 127.59375 C 24.140625 128.800781 24.996094 129.796875 26.15625 130.125 L 74.15625 143.90625 C 74.707031 144.070312 75.292969 144.070312 75.84375 143.90625 L 123.84375 130.125 C 125.003906 129.796875 125.859375 128.800781 126 127.59375 L 136.59375 9.28125 C 136.675781 8.4375 136.394531 7.605469 135.820312 6.972656 C 135.246094 6.351562 134.4375 6 133.59375 6 L 16.40625 6 C 16.3125 6 16.21875 6 16.125 6 C 16.03125 6 15.9375 6 15.84375 6 Z M 19.6875 12 L 130.3125 12 L 120.28125 124.96875 L 75 137.8125 L 29.71875 124.96875 Z M 37.59375 30.1875 C 36.046875 30.46875 34.980469 31.910156 35.15625 33.46875 L 39.1875 77.8125 C 39.28125 79.359375 40.546875 80.578125 42.09375 80.625 L 90 80.625 L 88.6875 94.40625 L 75.09375 97.3125 L 61.3125 94.40625 L 60.84375 89.53125 C 60.75 87.949219 59.425781 86.71875 57.84375 86.71875 L 43.21875 86.71875 C 42.375 86.71875 41.566406 87.070312 40.992188 87.691406 C 40.417969 88.324219 40.136719 89.15625 40.21875 90 L 41.90625 108.375 C 42 109.582031 42.808594 110.625 43.96875 111 L 73.78125 120.09375 L 74.15625 120.1875 C 74.707031 120.351562 75.292969 120.351562 75.84375 120.1875 L 106.03125 111 C 107.226562 110.660156 108.082031 109.617188 108.1875 108.375 L 112.125 63.28125 C 112.207031 62.449219 111.9375 61.628906 111.386719 61.007812 C 110.835938 60.386719 110.050781 60.023438 109.21875 60 L 58.125 60 L 57.375 50.71875 L 110.53125 50.71875 C 112.089844 50.730469 113.390625 49.546875 113.53125 48 L 114.84375 33.46875 C 114.925781 32.625 114.644531 31.792969 114.070312 31.160156 C 113.496094 30.539062 112.6875 30.1875 111.84375 30.1875 L 38.15625 30.1875 C 37.96875 30.164062 37.78125 30.164062 37.59375 30.1875 Z M 41.4375 36.1875 L 108.5625 36.1875 L 107.8125 44.71875 L 54.09375 44.71875 C 53.25 44.71875 52.441406 45.070312 51.867188 45.691406 C 51.292969 46.324219 51.011719 47.15625 51.09375 48 L 52.5 63.28125 C 52.640625 64.792969 53.894531 65.964844 55.40625 66 L 105.9375 66 L 102.375 105.84375 L 75 114.09375 L 47.625 105.84375 L 46.5 92.71875 L 55.125 92.71875 L 55.5 97.125 C 55.59375 98.449219 56.542969 99.550781 57.84375 99.84375 L 74.53125 103.3125 C 74.929688 103.394531 75.351562 103.394531 75.75 103.3125 L 92.15625 99.84375 C 93.457031 99.550781 94.40625 98.449219 94.5 97.125 L 96.28125 77.8125 C 96.328125 76.980469 96.035156 76.171875 95.472656 75.574219 C 94.898438 74.964844 94.113281 74.625 93.28125 74.625 L 44.8125 74.625 Z M 41.4375 36.1875 "/>
</g>
</svg>
